<svg xmlns="http://www.w3.org/2000/svg" viewBox="0 0 700 1174" role="img" aria-label="Clickable map of the provinces of the Philippines">
<!-- Generated by Budots Media PH from Highcharts Map Collection (Natural Earth data, public domain) -->
<style>
.prov{fill:#1c1f24;stroke:#ffd400;stroke-width:.6;transition:fill .25s;cursor:pointer}
a:hover .prov,a:focus .prov{fill:#ffd400;stroke:#111}
</style>
<a href="../../provinces/abra.html" target="_top" data-region="Cordillera Administrative Region (CAR)"><path class="prov" id="abra" d="M294.8,207.2L298.4,210.3L299.1,213.9L300.8,216.6L304.9,217.0L307.0,220.9L307.7,228.0L305.8,229.6L307.0,235.8L306.0,237.9L300.8,240.7L298.5,244.0L297.4,250.9L293.4,257.1L292.6,259.4L292.0,262.7L289.6,264.2L285.4,262.1L281.3,265.9L279.7,266.1L276.6,262.9L275.3,257.8L272.6,257.4L271.5,255.5L268.8,255.0L266.2,252.5L266.1,250.5L269.9,244.4L268.9,241.5L265.6,240.7L261.6,240.9L262.7,234.4L266.8,226.1L269.2,221.6L272.5,217.7L278.1,215.8L281.2,212.5L287.1,208.9L293.3,208.5L294.8,207.2Z"><title>Abra — Cordillera Administrative Region (CAR)</title></path></a>
<a href="../../provinces/agusan-del-norte.html" target="_top" data-region="Dinagat Islands (Region XIII)"><path class="prov" id="agusan-del-norte" d="M597.1,852.5L598.1,852.1L601.9,857.3L604.9,858.9L614.3,859.7L615.9,867.3L619.6,873.1L631.2,872.7L633.6,878.0L630.5,880.9L621.2,880.1L617.9,881.8L615.4,885.9L611.9,888.3L605.8,888.2L605.5,882.0L603.6,877.5L603.5,874.2L605.8,866.8L599.3,859.3L597.4,856.1L597.1,852.5ZM619.7,857.2L621.4,852.2L621.5,844.6L620.0,840.9L619.9,838.3L615.9,828.7L615.7,826.0L619.5,824.9L624.3,824.7L631.1,826.4L634.7,829.7L636.0,832.1L634.9,835.4L635.4,840.0L637.7,842.8L637.7,842.8L637.7,842.8L637.7,842.8L633.7,857.2L619.7,857.2Z"><title>Agusan del Norte — Dinagat Islands (Region XIII)</title></path></a>
<a href="../../provinces/agusan-del-sur.html" target="_top" data-region="Dinagat Islands (Region XIII)"><path class="prov" id="agusan-del-sur" d="M637.7,842.8L637.7,842.8L637.7,842.8L640.3,850.1L640.8,858.1L640.4,860.6L643.8,861.7L645.6,866.9L648.9,870.9L651.2,872.5L650.9,875.1L656.5,880.7L657.2,883.9L654.2,889.4L654.8,892.1L659.0,899.0L660.0,902.3L662.3,903.6L669.8,904.5L671.3,907.4L669.9,915.0L670.9,919.5L675.3,926.7L676.3,930.8L676.3,930.8L668.4,931.0L668.4,931.0L631.8,931.1L631.8,931.1L609.9,931.2L609.9,931.1L609.3,929.1L608.8,922.0L606.1,915.6L606.7,911.7L605.5,907.6L605.4,902.5L604.6,899.0L605.8,888.2L611.9,888.3L615.4,885.9L617.9,881.8L621.2,880.1L630.5,880.9L633.6,878.0L631.2,872.7L630.3,867.2L633.7,857.2L637.7,842.8L637.7,842.8Z"><title>Agusan del Sur — Dinagat Islands (Region XIII)</title></path></a>
<a href="../../provinces/aklan.html" target="_top" data-region="Western Visayas (Region VI)"><path class="prov" id="aklan" d="M356.2,657.8L358.7,654.1L359.3,648.7L364.1,645.9L368.8,648.6L370.4,650.8L375.1,653.9L383.0,655.7L385.6,656.7L390.7,660.3L394.3,661.0L397.2,665.3L403.2,670.4L407.5,672.1L408.9,673.6L404.6,677.7L403.3,680.2L398.8,680.9L394.0,680.3L392.1,687.0L390.2,688.8L384.8,690.2L379.4,690.4L379.6,686.5L378.9,683.2L375.4,678.7L377.3,674.5L376.3,673.0L377.0,670.0L376.4,666.4L378.3,662.1L375.6,657.7L369.1,654.0L363.4,653.6L356.2,657.8Z"><title>Aklan — Western Visayas (Region VI)</title></path></a>
<a href="../../provinces/albay.html" target="_top" data-region="Bicol (Region V)"><path class="prov" id="albay" d="M524.1,555.5L523.3,555.8L516.2,554.5L513.9,553.2L519.1,551.5L523.3,553.0L524.1,555.5ZM506.5,547.7L508.2,548.5L512.6,548.3L515.3,549.1L512.6,552.0L511.0,552.4L504.9,550.7L503.2,547.5L506.5,547.7ZM501.0,551.8L498.3,548.9L498.6,545.4L497.6,543.5L499.2,542.8L503.7,544.6L501.4,548.7L502.4,550.6L501.0,551.8ZM496.4,540.9L498.2,541.9L496.7,543.0L493.0,539.3L496.4,540.9ZM473.4,570.4L469.5,566.0L465.5,565.5L460.2,567.7L458.4,563.4L457.9,559.9L459.8,554.2L458.9,550.8L469.8,541.1L472.4,542.1L473.5,541.0L477.4,542.1L479.2,541.2L480.3,538.0L479.6,534.6L477.2,532.9L477.3,530.8L480.2,530.2L485.5,533.3L489.4,538.4L490.1,542.3L492.1,545.0L494.6,546.2L496.6,551.0L498.9,551.9L492.7,552.3L491.5,557.3L492.9,560.5L491.1,561.9L491.1,563.9L493.3,564.9L496.3,563.4L500.0,558.2L504.7,559.9L502.7,564.6L494.3,566.3L484.9,565.3L477.4,567.3L473.4,570.4Z"><title>Albay — Bicol (Region V)</title></path></a>
<a href="../../provinces/angeles.html" target="_top" data-region="Central Luzon (Region III)"><path class="prov" id="angeles" d="M271.4,414.1L268.2,415.0L265.5,412.7L262.6,412.0L266.7,409.7L271.5,409.6L271.4,414.1Z"><title>Angeles — Central Luzon (Region III)</title></path></a>
<a href="../../provinces/antique.html" target="_top" data-region="Western Visayas (Region VI)"><path class="prov" id="antique" d="M332.7,652.1L330.5,653.5L324.6,652.5L325.6,651.0L329.0,650.6L332.7,652.1ZM323.9,640.7L321.8,640.1L321.0,637.7L321.6,632.8L324.3,636.4L325.0,638.7L323.9,640.7ZM368.7,752.8L365.0,755.1L362.7,754.8L361.2,752.3L361.5,749.3L364.3,744.0L365.3,740.9L364.7,734.7L361.8,730.0L364.8,720.6L369.7,712.4L370.2,709.1L370.2,696.8L369.5,691.9L371.2,687.6L371.7,679.0L372.7,677.8L374.2,665.9L372.6,661.1L366.0,659.9L360.8,658.4L356.2,657.8L363.4,653.6L369.1,654.0L375.6,657.7L378.3,662.1L376.4,666.4L377.0,670.0L376.3,673.0L377.3,674.5L375.4,678.7L378.9,683.2L379.6,686.5L379.4,690.4L380.2,697.3L381.4,700.1L383.6,702.4L387.5,705.9L390.1,710.0L389.3,713.7L387.2,715.4L386.3,718.8L383.9,720.8L380.1,729.0L376.9,732.9L371.7,736.2L368.8,740.0L366.8,750.5L368.7,752.8Z"><title>Antique — Western Visayas (Region VI)</title></path></a>
<a href="../../provinces/apayao.html" target="_top" data-region="Cordillera Administrative Region (CAR)"><path class="prov" id="apayao" d="M307.7,228.0L307.0,220.9L304.9,217.0L300.8,216.6L299.1,213.9L298.4,210.3L294.8,207.2L295.5,205.1L294.9,199.3L295.5,196.4L297.8,193.3L297.2,190.8L293.5,188.7L293.2,186.5L295.5,185.1L296.4,182.1L295.7,177.5L296.5,172.4L298.3,171.8L303.6,166.3L305.5,166.5L306.4,169.7L308.1,171.1L315.3,173.5L318.7,175.2L331.1,183.2L332.6,185.6L332.9,191.8L331.3,198.0L325.2,209.4L324.0,212.7L321.1,216.5L322.7,219.1L325.9,219.6L327.4,221.7L328.8,225.7L319.5,226.8L314.1,228.1L307.7,228.0Z"><title>Apayao — Cordillera Administrative Region (CAR)</title></path></a>
<a href="../../provinces/aurora.html" target="_top" data-region="Central Luzon (Region III)"><path class="prov" id="aurora" d="M370.7,313.9L385.2,313.7L382.4,319.9L383.7,323.1L381.5,327.7L381.8,329.6L384.3,327.6L381.9,333.8L380.4,334.0L372.9,342.1L372.1,345.0L367.3,347.9L370.2,342.2L373.6,339.9L375.1,335.6L377.3,334.3L377.5,331.8L375.5,331.6L373.4,333.2L372.6,336.9L364.7,340.6L358.7,341.9L355.9,344.1L350.5,345.0L345.7,349.0L342.8,352.8L338.2,355.4L336.9,358.1L336.5,363.0L337.9,366.9L341.9,368.2L342.2,370.7L339.3,374.1L341.7,375.2L337.8,377.6L336.9,380.2L331.6,385.3L331.1,390.0L327.3,396.0L325.2,395.3L323.9,400.6L326.3,406.2L328.6,408.0L326.0,408.4L325.0,411.4L325.6,413.7L322.1,419.0L322.2,421.0L320.3,420.6L317.8,417.6L318.9,413.3L318.4,409.8L320.6,399.2L323.1,391.4L322.7,386.1L316.3,366.5L329.0,355.9L354.5,334.7L359.1,330.2L370.7,313.9Z"><title>Aurora — Central Luzon (Region III)</title></path></a>
<a href="../../provinces/bacolod.html" target="_top" data-region="Western Visayas (Region VI)"><path class="prov" id="bacolod" d="M432.3,741.5L433.4,738.6L436.4,732.6L443.0,737.0L439.9,743.4L432.3,741.5Z"><title>Bacolod — Western Visayas (Region VI)</title></path></a>
<a href="../../provinces/baguio.html" target="_top" data-region="Cordillera Administrative Region (CAR)"><path class="prov" id="baguio" d="M273.0,318.5L273.5,324.3L268.8,323.8L267.4,318.3L273.0,318.5Z"><title>Baguio — Cordillera Administrative Region (CAR)</title></path></a>
<a href="../../provinces/basilan.html" target="_top" data-region="Autonomous Region in Muslim Mindanao (ARMM)"><path class="prov" id="basilan" d="M338.2,1035.3L335.3,1030.6L337.8,1027.7L338.6,1028.8L338.2,1035.3ZM359.7,1027.5L361.9,1030.2L363.0,1034.5L372.7,1034.0L369.7,1027.7L369.1,1022.9L376.6,1025.4L377.8,1027.2L381.9,1027.9L389.9,1032.8L387.3,1034.3L382.7,1035.2L380.3,1039.4L379.2,1043.8L374.3,1044.8L369.7,1046.5L362.8,1047.2L361.9,1044.3L356.8,1040.0L356.5,1034.9L352.1,1033.6L351.8,1029.7L353.9,1028.0L359.7,1027.5Z"><title>Basilan — Autonomous Region in Muslim Mindanao (ARMM)</title></path></a>
<a href="../../provinces/bataan.html" target="_top" data-region="Central Luzon (Region III)"><path class="prov" id="bataan" d="M258.8,426.7L261.4,432.8L264.8,435.1L264.2,444.1L266.9,447.2L266.6,450.0L268.2,458.5L265.7,463.1L258.1,463.2L254.3,461.9L252.5,458.2L252.9,453.7L252.0,449.9L249.1,448.0L246.2,447.5L243.2,441.9L245.4,440.6L243.4,439.2L246.2,436.4L247.1,436.6L250.4,433.8L256.0,432.3L258.4,428.6L258.8,426.7Z"><title>Bataan — Central Luzon (Region III)</title></path></a>
<a href="../../provinces/batanes.html" target="_top" data-region="Cagayan Valley (Region II)"><path class="prov" id="batanes" d="M360.1,40.2L359.3,40.2L358.8,34.9L362.2,37.3L360.1,40.2ZM366.8,34.4L364.3,34.4L364.3,31.6L368.3,25.8L370.3,24.7L371.4,27.1L367.2,30.6L367.8,32.7L366.8,34.4ZM358.1,9.3L355.2,9.0L355.5,7.0L358.8,0.5L361.2,0.0L361.4,4.2L358.1,9.3Z"><title>Batanes — Cagayan Valley (Region II)</title></path></a>
<a href="../../provinces/batangas.html" target="_top" data-region="CALABARZON (Region IV-A)"><path class="prov" id="batangas" d="M302.2,526.7L302.7,529.1L301.2,529.2L299.2,527.4L302.2,526.7ZM290.6,522.3L287.3,521.9L285.2,519.2L290.9,520.2L290.6,522.3ZM315.1,498.4L319.0,503.0L324.3,507.2L328.5,508.9L327.0,510.5L327.1,517.4L329.1,517.9L326.6,520.6L322.7,519.8L315.9,525.0L307.4,521.8L301.8,523.2L298.5,521.5L299.9,515.7L298.9,513.0L294.8,511.4L289.2,517.8L287.7,515.9L291.2,511.2L289.8,509.6L290.1,504.0L288.8,502.2L278.3,500.1L275.4,500.6L275.0,502.8L276.6,505.7L272.2,505.4L271.6,506.5L272.3,511.6L269.9,509.0L269.2,500.2L268.0,497.4L270.4,495.8L269.2,494.0L269.4,487.7L266.6,485.5L267.9,483.8L267.9,479.2L271.7,479.6L274.3,481.3L274.2,482.9L276.3,485.2L283.3,487.4L287.1,489.8L291.7,489.1L298.1,486.3L298.7,485.0L305.7,484.7L309.2,485.5L311.0,487.5L312.1,495.1L315.1,496.8L315.1,498.4Z"><title>Batangas — CALABARZON (Region IV-A)</title></path></a>
<a href="../../provinces/benguet.html" target="_top" data-region="Cordillera Administrative Region (CAR)"><path class="prov" id="benguet" d="M280.7,335.4L274.6,336.4L264.6,333.0L262.0,324.8L261.0,316.0L261.7,312.3L264.0,308.7L269.7,302.5L271.5,299.5L272.9,287.5L274.6,284.9L280.0,284.2L282.5,283.2L284.9,286.2L287.8,288.6L289.8,292.1L290.5,302.4L291.3,306.7L291.2,318.7L289.1,324.7L287.8,326.4L283.7,327.4L282.2,328.9L280.6,333.2L280.7,335.4ZM273.0,318.5L267.4,318.3L268.8,323.8L273.5,324.3L273.0,318.5Z"><title>Benguet — Cordillera Administrative Region (CAR)</title></path></a>
<a href="../../provinces/biliran.html" target="_top" data-region="Eastern Visayas (Region VIII)"><path class="prov" id="biliran" d="M539.3,673.9L536.6,666.7L534.6,664.2L540.5,663.1L545.1,663.1L549.4,665.6L552.6,672.6L554.4,674.8L553.3,678.2L544.5,678.2L544.0,679.1L539.3,673.9Z"><title>Biliran — Eastern Visayas (Region VIII)</title></path></a>
<a href="../../provinces/bohol.html" target="_top" data-region="Central Visayas (Region VII)"><path class="prov" id="bohol" d="M494.7,818.8L492.1,818.6L490.5,815.9L494.4,813.7L498.7,812.3L500.7,813.9L498.9,816.2L494.7,818.8ZM553.7,775.9L553.0,779.3L550.4,779.9L548.9,781.7L547.6,778.0L552.1,775.8L553.7,775.9ZM552.1,795.0L549.7,796.2L555.1,800.5L552.3,805.6L547.6,805.0L546.1,803.0L541.0,806.9L539.7,811.0L537.7,812.6L531.3,814.8L514.8,815.6L505.6,814.0L502.4,813.0L500.2,810.9L501.0,806.5L496.2,805.1L496.3,800.6L497.7,797.7L501.1,794.5L501.9,792.5L504.1,792.5L505.1,790.7L513.8,787.7L515.5,782.7L518.4,781.6L518.4,779.7L523.3,775.7L533.9,774.4L535.2,775.2L535.6,778.2L538.5,775.2L539.4,777.4L545.2,781.6L547.5,781.4L552.4,784.4L551.8,788.1L551.0,787.1L550.1,791.5L552.1,795.0Z"><title>Bohol — Central Visayas (Region VII)</title></path></a>
<a href="../../provinces/bukidnon.html" target="_top" data-region="Northern Mindanao (Region X)"><path class="prov" id="bukidnon" d="M551.9,917.8L551.8,914.0L551.8,914.0L553.1,910.9L555.2,901.3L567.1,901.9L570.2,899.9L570.0,893.8L573.7,889.1L577.5,887.9L605.8,888.2L604.6,899.0L605.4,902.5L605.5,907.6L606.7,911.7L606.1,915.6L608.8,922.0L609.3,929.1L609.9,931.1L609.9,931.2L612.6,937.2L615.1,947.0L614.4,952.2L612.0,955.3L604.9,954.4L603.8,960.4L603.3,961.3L602.2,961.6L599.6,961.2L597.6,962.5L593.0,967.5L588.5,969.5L587.3,972.9L581.8,975.4L577.6,972.8L575.7,974.1L574.1,972.0L572.5,965.0L569.8,962.3L569.0,959.5L566.3,957.0L563.9,951.5L558.3,943.6L556.7,942.9L554.2,937.8L555.5,936.1L558.7,935.8L558.1,933.1L557.9,932.3L556.0,930.8L555.9,930.7L556.0,930.7L551.8,924.9L551.0,922.7L551.9,917.8Z"><title>Bukidnon — Northern Mindanao (Region X)</title></path></a>
<a href="../../provinces/bulacan.html" target="_top" data-region="Central Luzon (Region III)"><path class="prov" id="bulacan" d="M318.4,409.8L318.9,413.3L317.8,417.6L320.3,420.6L320.7,423.1L321.0,431.1L318.6,431.0L315.8,434.0L311.4,435.6L307.7,440.4L306.0,440.2L305.0,440.9L300.9,439.8L297.4,441.7L294.4,444.1L291.9,443.0L293.4,445.4L293.5,446.2L292.1,445.1L291.3,444.4L290.8,445.0L289.3,442.7L284.8,439.9L277.9,439.6L273.1,438.7L277.5,430.4L284.9,427.3L290.3,421.7L292.9,414.8L291.5,409.7L292.7,406.8L302.5,404.2L305.4,404.0L308.7,405.2L314.8,409.7L318.4,409.8Z"><title>Bulacan — Central Luzon (Region III)</title></path></a>
<a href="../../provinces/butuan.html" target="_top" data-region="Dinagat Islands (Region XIII)"><path class="prov" id="butuan" d="M633.7,857.2L630.3,867.2L631.2,872.7L619.6,873.1L615.9,867.3L614.3,859.7L615.9,859.4L619.7,857.2L633.7,857.2Z"><title>Butuan — Dinagat Islands (Region XIII)</title></path></a>
<a href="../../provinces/cagayan.html" target="_top" data-region="Cagayan Valley (Region II)"><path class="prov" id="cagayan" d="M331.5,141.0L329.7,143.0L321.9,143.9L319.1,142.4L319.2,141.1L328.7,139.2L331.5,141.0ZM366.3,132.7L368.3,136.5L366.4,137.3L361.7,142.4L359.6,145.7L357.5,144.8L358.0,142.3L360.4,140.0L358.9,138.3L362.3,132.4L366.3,132.7ZM317.9,129.1L316.9,131.1L313.6,127.6L313.3,124.3L314.6,119.5L315.9,120.8L317.9,129.1ZM331.4,104.6L335.8,104.0L336.5,109.3L337.8,111.5L334.5,113.8L328.2,110.9L324.4,105.6L327.5,103.2L331.4,104.6ZM369.1,92.2L368.4,95.5L366.5,97.1L362.2,93.8L362.1,92.4L365.8,92.2L367.7,90.9L369.1,92.2ZM299.3,160.8L304.7,159.7L307.1,158.2L311.4,159.5L312.8,161.4L318.0,164.7L328.9,170.6L337.3,176.3L340.5,177.4L343.1,181.2L344.2,178.5L346.1,179.5L358.5,184.5L363.0,185.2L367.0,184.6L371.5,182.2L374.2,177.9L376.5,176.9L379.4,167.9L384.1,167.6L385.7,169.3L386.9,174.1L390.8,178.1L391.3,181.2L390.0,187.3L386.9,192.0L381.1,196.7L380.4,199.1L381.4,206.7L378.3,220.2L378.0,224.1L379.4,226.8L379.4,233.2L381.3,238.8L360.6,238.6L355.9,240.0L344.3,240.3L338.2,237.0L328.8,225.7L327.4,221.7L325.9,219.6L322.7,219.1L321.1,216.5L324.0,212.7L325.2,209.4L331.3,198.0L332.9,191.8L332.6,185.6L331.1,183.2L318.7,175.2L315.3,173.5L308.1,171.1L306.4,169.7L305.5,166.5L303.6,166.3L298.3,171.8L296.5,172.4L297.7,164.6L299.3,160.8Z"><title>Cagayan — Cagayan Valley (Region II)</title></path></a>
<a href="../../provinces/cagayan-de-oro.html" target="_top" data-region="Northern Mindanao (Region X)"><path class="prov" id="cagayan-de-oro" d="M551.8,914.0L551.8,914.0L549.4,912.7L548.1,910.3L542.0,905.9L546.6,901.1L549.2,899.4L549.4,897.3L547.2,896.6L551.6,893.0L557.9,893.9L556.4,899.9L558.3,896.7L561.8,897.0L564.8,894.9L564.8,890.5L570.0,893.8L570.2,899.9L567.1,901.9L555.2,901.3L553.1,910.9L551.8,914.0Z"><title>Cagayan de Oro — Northern Mindanao (Region X)</title></path></a>
<a href="../../provinces/caloocan.html" target="_top" data-region="National Capital Region"><path class="prov" id="caloocan" d="M296.8,449.9L296.1,449.7L295.1,449.8L294.5,449.2L294.7,448.2L297.1,447.2L297.5,446.6L299.3,446.2L297.4,448.3L296.8,449.9ZM298.6,445.1L297.5,444.4L297.4,441.7L300.9,439.8L305.0,440.9L303.1,442.7L300.4,442.8L298.6,445.1Z"><title>Caloocan — National Capital Region</title></path></a>
<a href="../../provinces/camarines-norte.html" target="_top" data-region="Bicol (Region V)"><path class="prov" id="camarines-norte" d="M389.3,489.0L391.0,487.8L392.0,484.8L390.5,482.3L394.0,478.6L393.3,477.0L394.9,473.8L395.9,474.6L400.6,470.9L404.1,472.4L404.7,470.7L409.9,472.4L409.7,473.4L412.9,475.4L416.2,474.9L415.1,473.1L415.4,470.6L418.5,473.1L420.6,471.9L424.1,475.2L427.8,475.8L433.2,481.4L439.0,488.4L441.1,489.0L440.4,494.4L444.1,498.0L443.9,504.4L442.0,506.2L441.6,509.0L437.9,503.7L432.7,498.6L425.1,496.6L401.3,485.1L398.1,485.3L393.9,488.8L390.7,490.4L389.3,489.0Z"><title>Camarines Norte — Bicol (Region V)</title></path></a>
<a href="../../provinces/camarines-sur.html" target="_top" data-region="Bicol (Region V)"><path class="prov" id="camarines-sur" d="M484.3,497.7L486.0,499.5L482.1,502.6L480.3,499.8L482.1,499.9L484.3,497.7ZM458.9,550.8L455.7,548.4L451.7,542.6L452.1,540.6L450.2,536.0L442.7,532.2L436.1,530.4L428.1,524.7L425.0,521.2L428.3,518.2L424.8,514.3L421.0,511.8L421.6,510.6L416.2,508.2L414.4,509.1L413.7,506.6L411.3,503.9L406.8,500.9L410.8,498.6L420.7,497.5L425.1,496.6L432.7,498.6L437.9,503.7L441.6,509.0L441.6,512.3L445.8,516.2L447.8,515.5L453.4,515.7L457.1,514.3L460.4,509.1L457.9,502.8L461.2,500.4L458.1,500.7L454.7,498.7L453.6,496.6L456.1,495.0L456.0,491.1L460.4,492.3L459.5,490.8L461.8,490.8L462.6,489.2L463.8,492.9L463.1,495.0L465.7,493.3L464.8,495.3L467.4,498.6L468.2,502.8L469.6,498.8L472.0,499.6L473.1,501.7L476.3,501.4L481.5,503.5L486.4,504.3L488.6,500.8L492.4,505.9L495.1,507.8L504.7,511.6L507.2,515.6L499.0,514.6L494.7,518.6L490.8,517.0L485.4,516.5L484.1,517.5L479.9,515.7L477.8,517.1L475.7,523.2L476.2,527.7L478.0,527.2L480.2,530.2L477.3,530.8L477.2,532.9L479.6,534.6L480.3,538.0L479.2,541.2L477.4,542.1L473.5,541.0L472.4,542.1L469.8,541.1L458.9,550.8ZM448.0,523.7L454.7,527.4L464.2,523.6L458.9,520.5L448.0,523.7Z"><title>Camarines Sur — Bicol (Region V)</title></path></a>
<a href="../../provinces/camiguin.html" target="_top" data-region="Northern Mindanao (Region X)"><path class="prov" id="camiguin" d="M566.5,852.8L558.7,849.6L556.1,845.5L556.9,842.8L561.3,840.5L564.0,841.3L567.4,844.6L568.6,847.2L568.0,851.6L566.5,852.8Z"><title>Camiguin — Northern Mindanao (Region X)</title></path></a>
<a href="../../provinces/capiz.html" target="_top" data-region="Western Visayas (Region VI)"><path class="prov" id="capiz" d="M408.9,673.6L411.1,676.9L413.4,675.7L413.8,672.5L415.7,674.2L418.9,670.8L418.5,669.4L423.3,669.4L427.8,670.9L429.2,674.0L434.1,675.9L430.6,678.5L429.3,681.4L431.0,682.0L434.9,679.7L438.7,678.5L441.3,676.4L444.2,675.4L441.2,681.1L441.1,684.1L437.4,687.6L434.6,688.3L435.0,692.2L430.0,694.2L429.9,698.3L428.2,699.8L425.7,699.1L423.1,700.1L422.6,698.2L414.5,698.6L408.5,696.6L406.7,697.0L405.9,699.0L402.7,700.4L399.2,699.8L395.3,700.0L391.0,698.1L387.1,699.1L383.6,702.4L381.4,700.1L380.2,697.3L379.4,690.4L384.8,690.2L390.2,688.8L392.1,687.0L394.0,680.3L398.8,680.9L403.3,680.2L404.6,677.7L408.9,673.6Z"><title>Capiz — Western Visayas (Region VI)</title></path></a>
<a href="../../provinces/catanduanes.html" target="_top" data-region="Bicol (Region V)"><path class="prov" id="catanduanes" d="M538.1,519.9L534.3,520.5L532.8,526.8L530.0,524.6L524.9,526.2L523.3,530.0L521.2,530.0L515.3,524.9L512.5,524.5L510.9,519.9L515.3,516.5L517.8,511.9L518.2,509.1L517.6,504.9L518.6,502.6L517.2,496.7L518.6,495.1L517.8,492.3L523.2,489.2L525.6,490.9L527.8,494.2L528.7,499.0L531.4,502.6L532.4,500.7L538.7,505.0L536.7,506.9L538.7,510.4L537.3,512.3L536.8,516.7L538.1,519.9Z"><title>Catanduanes — Bicol (Region V)</title></path></a>
<a href="../../provinces/cavite.html" target="_top" data-region="CALABARZON (Region IV-A)"><path class="prov" id="cavite" d="M267.9,479.2L270.1,475.7L276.2,473.6L280.1,470.5L281.6,468.1L287.9,462.1L290.9,461.8L293.9,459.5L294.8,462.8L297.5,466.6L297.8,467.4L297.7,469.4L297.5,471.7L301.8,472.5L299.8,476.8L300.6,478.1L298.4,482.9L298.7,485.0L298.1,486.3L291.7,489.1L287.1,489.8L283.3,487.4L276.3,485.2L274.2,482.9L274.3,481.3L271.7,479.6L267.9,479.2Z"><title>Cavite — CALABARZON (Region IV-A)</title></path></a>
<a href="../../provinces/cebu.html" target="_top" data-region="Central Visayas (Region VII)"><path class="prov" id="cebu" d="M491.8,703.5L490.7,702.6L488.7,696.2L491.6,692.5L492.7,693.5L496.6,703.0L491.8,703.5ZM505.3,757.2L503.3,754.6L500.8,756.7L498.3,760.7L500.6,768.2L496.2,769.1L489.8,775.0L488.8,778.6L485.8,780.9L484.3,783.5L484.4,789.2L483.0,795.1L481.4,795.9L474.8,811.5L473.3,817.8L470.2,821.1L464.8,828.1L462.8,829.5L461.3,827.8L460.8,822.1L464.4,802.0L467.2,795.2L467.7,791.9L465.7,790.5L465.9,788.3L467.7,788.3L468.5,783.6L474.6,777.4L476.4,772.6L479.9,767.9L481.0,763.3L488.9,752.8L490.2,749.6L489.6,747.4L492.2,742.8L493.0,739.9L499.0,731.7L503.8,718.1L505.1,715.9L503.9,711.6L505.9,706.6L507.9,708.1L506.3,702.3L507.6,699.6L511.0,694.9L513.0,693.5L515.2,694.2L512.8,704.2L509.7,708.1L511.0,709.6L513.8,709.1L514.3,714.8L513.6,718.7L514.6,721.7L511.4,732.0L511.6,734.8L513.5,740.8L512.8,751.2L510.6,756.9L511.3,758.6L509.4,760.4L508.5,758.9L505.3,757.2Z"><title>Cebu — Central Visayas (Region VII)</title></path></a>
<a href="../../provinces/cebu-ph-6983.html" target="_top" data-region="Central Visayas (Region VII)"><path class="prov" id="cebu-ph-6983" d="M505.3,763.8L502.1,765.8L500.6,768.2L498.3,760.7L500.8,756.7L503.3,754.6L505.3,757.2L503.8,761.1L505.3,763.8Z"><title>Cebu — Central Visayas (Region VII)</title></path></a>
<a href="../../provinces/compostela-valley.html" target="_top" data-region="Davao (Region XI)"><path class="prov" id="compostela-valley" d="M652.4,999.9L648.6,996.0L647.7,992.0L644.7,985.0L644.8,979.0L643.2,977.8L644.0,972.8L643.4,970.4L647.0,968.1L644.7,965.1L649.4,964.0L650.7,957.8L648.5,953.5L651.2,948.4L649.5,943.4L644.2,950.2L642.1,953.8L639.3,955.8L639.3,952.8L633.8,945.8L631.8,931.1L631.8,931.1L631.8,931.1L668.4,931.0L668.4,931.0L667.6,936.1L668.1,941.6L672.9,960.0L673.2,962.7L671.3,970.3L671.7,972.2L676.3,979.4L676.9,981.5L673.2,985.8L661.2,993.2L655.9,997.8L652.4,999.9Z"><title>Compostela Valley — Davao (Region XI)</title></path></a>
<a href="../../provinces/cotabato.html" target="_top" data-region="SOCCSKSARGEN (Region XII)"><path class="prov" id="cotabato" d="M547.2,953.8L549.8,954.6L553.3,958.5L561.1,958.2L569.0,959.5L569.8,962.3L572.5,965.0L574.1,972.0L575.7,974.1L577.6,972.8L581.8,975.4L587.3,972.9L588.5,969.5L593.0,967.5L597.6,962.5L599.6,961.2L602.2,961.6L603.0,964.9L600.7,972.5L600.2,977.4L601.1,986.4L599.2,990.4L603.7,993.9L605.0,995.9L605.1,1002.4L602.7,1003.5L602.7,1007.0L595.3,1015.0L594.1,1019.5L594.0,1019.5L575.7,1023.5L575.7,1023.5L571.9,1021.3L571.4,1020.7L571.1,1005.7L568.3,1005.8L567.3,1003.8L568.5,998.4L567.2,995.6L563.0,989.2L561.2,991.1L563.0,994.8L559.0,998.2L561.1,1000.2L562.9,1004.1L559.0,1007.5L552.8,1005.1L551.3,1003.9L551.2,1001.4L545.8,999.5L543.1,996.2L545.7,990.2L546.1,987.4L542.1,986.8L538.0,991.5L534.2,991.3L534.7,989.3L546.2,972.5L543.6,967.2L543.1,964.8L544.1,955.4L544.1,955.3L544.1,955.3L547.2,953.8Z"><title>Cotabato — SOCCSKSARGEN (Region XII)</title></path></a>
<a href="../../provinces/cotabato-ph-6988.html" target="_top" data-region="Autonomous Region in Muslim Mindanao (ARMM)"><path class="prov" id="cotabato-ph-6988" d="M523.9,987.5L526.6,982.9L526.4,980.7L528.8,981.1L532.7,987.8L530.9,991.9L527.2,990.7L523.9,987.5Z"><title>Cotabato — Autonomous Region in Muslim Mindanao (ARMM)</title></path></a>
<a href="../../provinces/dagupan.html" target="_top" data-region="Ilocos (Region I)"><path class="prov" id="dagupan" d="M245.5,345.8L249.0,346.4L253.1,341.8L255.7,346.6L251.3,350.1L248.1,350.9L245.5,345.8Z"><title>Dagupan — Ilocos (Region I)</title></path></a>
<a href="../../provinces/davao.html" target="_top" data-region="Davao (Region XI)"><path class="prov" id="davao" d="M632.1,984.3L630.7,986.3L630.8,994.2L629.5,997.1L626.9,999.6L620.1,1002.4L605.1,1002.4L605.0,995.9L603.7,993.9L599.2,990.4L601.1,986.4L600.2,977.4L600.7,972.5L603.0,964.9L602.2,961.6L603.3,961.3L603.8,960.4L619.3,960.7L619.1,984.9L620.9,986.4L628.2,986.2L631.2,983.6L632.1,984.3Z"><title>Davao — Davao (Region XI)</title></path></a>
<a href="../../provinces/davao-oriental.html" target="_top" data-region="Davao (Region XI)"><path class="prov" id="davao-oriental" d="M676.3,930.8L676.3,930.8L677.9,934.9L683.0,937.8L684.7,942.6L688.3,945.2L690.7,948.9L692.4,949.8L697.6,950.8L696.6,957.5L698.4,962.8L699.7,969.2L696.5,972.1L698.3,974.7L696.9,981.2L699.9,982.9L700.0,984.3L697.7,988.5L695.6,989.8L693.6,994.5L690.3,998.3L689.5,1003.0L686.0,1004.6L681.1,1003.2L678.2,1007.0L677.6,1011.0L680.7,1014.2L680.4,1018.7L678.3,1017.9L675.2,1011.3L671.2,1008.0L669.7,1008.7L669.7,1011.7L668.0,1011.8L670.9,1017.3L674.3,1020.3L672.5,1031.2L672.4,1041.9L671.2,1047.6L671.0,1054.2L669.5,1055.1L668.7,1049.6L666.3,1047.9L665.9,1044.7L662.8,1038.6L661.8,1029.6L662.8,1023.3L661.5,1014.7L657.4,1013.0L654.0,1007.8L654.7,1003.0L652.4,999.9L655.9,997.8L661.2,993.2L673.2,985.8L676.9,981.5L676.3,979.4L671.7,972.2L671.3,970.3L673.2,962.7L672.9,960.0L668.1,941.6L667.6,936.1L668.4,931.0L668.4,931.0L676.3,930.8Z"><title>Davao Oriental — Davao (Region XI)</title></path></a>
<a href="../../provinces/davao-del-norte.html" target="_top" data-region="Davao (Region XI)"><path class="prov" id="davao-del-norte" d="M631.8,931.1L631.8,931.1L631.8,931.1L633.8,945.8L639.3,952.8L639.3,955.8L642.1,953.8L644.2,950.2L649.5,943.4L651.2,948.4L648.5,953.5L650.7,957.8L649.4,964.0L644.7,965.1L647.0,968.1L643.4,970.4L644.0,972.8L643.2,977.8L641.5,978.0L632.1,984.3L631.2,983.6L628.2,986.2L620.9,986.4L619.1,984.9L619.3,960.7L603.8,960.4L604.9,954.4L612.0,955.3L614.4,952.2L615.1,947.0L612.6,937.2L609.9,931.2L609.9,931.1L631.8,931.1ZM640.3,995.3L639.9,1004.6L640.7,1007.8L640.1,1009.4L639.5,1011.2L637.8,1009.4L635.2,999.7L632.0,998.4L633.6,994.3L634.3,989.5L639.8,993.6L640.3,995.3Z"><title>Davao del Norte — Davao (Region XI)</title></path></a>
<a href="../../provinces/davao-del-sur.html" target="_top" data-region="Davao (Region XI)"><path class="prov" id="davao-del-sur" d="M614.3,1121.4L610.0,1122.2L607.8,1120.7L611.0,1117.6L614.0,1117.9L614.3,1121.4ZM596.1,1035.4L597.2,1028.2L594.4,1023.0L594.1,1019.5L595.3,1015.0L602.7,1007.0L602.7,1003.5L605.1,1002.4L620.1,1002.4L618.6,1005.1L618.0,1009.9L614.0,1014.5L611.4,1020.5L610.7,1027.3L612.1,1032.8L614.8,1033.6L614.7,1031.5L617.0,1033.0L622.1,1039.0L624.9,1038.6L626.7,1041.2L627.0,1045.1L630.1,1051.2L631.2,1055.8L634.8,1065.3L635.0,1068.1L633.7,1071.7L634.2,1073.3L632.0,1079.7L626.7,1086.2L619.7,1096.1L615.3,1104.0L611.7,1107.2L605.8,1106.6L610.9,1102.9L617.0,1088.6L618.2,1088.2L618.2,1082.4L621.6,1072.5L621.6,1068.8L620.2,1066.9L620.5,1060.5L617.0,1054.5L614.3,1053.2L604.2,1053.1L601.4,1052.2L595.5,1047.6L593.6,1044.7L595.3,1040.8L596.1,1035.4L596.1,1035.4L596.1,1035.4Z"><title>Davao del Sur — Davao (Region XI)</title></path></a>
<a href="../../provinces/eastern-samar.html" target="_top" data-region="Eastern Visayas (Region VIII)"><path class="prov" id="eastern-samar" d="M636.3,731.7L639.8,731.7L641.4,733.2L636.9,734.6L630.8,730.9L631.0,727.1L634.1,726.8L636.3,731.7ZM592.4,617.7L594.3,614.0L597.4,614.1L600.4,620.0L603.4,618.6L606.3,617.5L605.9,619.5L608.8,618.4L608.4,619.7L611.7,620.0L616.6,622.3L618.7,625.0L619.3,627.9L615.2,628.3L617.3,629.8L614.3,630.7L613.7,632.6L616.3,633.8L618.6,637.1L616.1,639.0L613.4,643.1L612.9,647.3L613.8,652.1L616.3,655.0L615.7,656.7L613.9,656.0L613.4,658.6L615.6,658.0L617.0,662.1L615.3,664.5L615.0,669.3L616.4,669.8L617.3,673.9L618.9,676.2L618.7,679.6L620.6,679.6L621.4,682.2L627.1,686.2L626.3,690.2L622.0,693.5L621.3,697.6L622.5,699.0L626.7,698.5L626.6,695.8L632.2,700.0L633.8,704.4L637.5,709.1L636.1,711.2L633.2,709.3L632.2,704.4L628.2,702.2L624.5,704.4L622.8,701.9L620.1,702.5L619.3,706.5L616.1,703.8L613.0,706.1L610.0,705.5L604.2,702.3L601.3,703.4L598.8,706.4L601.9,694.5L605.4,688.2L606.3,683.0L605.6,680.5L601.9,674.5L601.4,672.5L599.2,645.8L597.1,640.6L595.6,639.4L589.8,640.8L588.6,634.5L588.6,631.2L591.0,626.7L592.4,617.7Z"><title>Eastern Samar — Eastern Visayas (Region VIII)</title></path></a>
<a href="../../provinces/general-santos.html" target="_top" data-region="SOCCSKSARGEN (Region XII)"><path class="prov" id="general-santos" d="M600.8,1069.5L594.7,1069.0L594.0,1072.7L591.6,1079.7L587.3,1079.4L587.0,1076.0L586.0,1071.7L586.0,1062.1L592.1,1062.4L590.8,1058.1L593.4,1053.0L601.4,1055.8L603.1,1056.9L602.9,1059.2L600.8,1062.7L600.8,1069.5Z"><title>General Santos — SOCCSKSARGEN (Region XII)</title></path></a>
<a href="../../provinces/guimaras.html" target="_top" data-region="Western Visayas (Region VI)"><path class="prov" id="guimaras" d="M404.3,743.5L407.5,738.1L411.1,736.7L411.9,734.0L414.5,731.0L417.4,733.1L419.3,736.0L419.2,739.9L418.1,743.9L415.7,749.6L411.9,754.1L409.1,754.9L408.9,753.0L404.4,755.6L403.6,752.2L400.9,749.9L403.4,749.4L406.0,746.5L404.7,746.2L404.3,743.5Z"><title>Guimaras — Western Visayas (Region VI)</title></path></a>
<a href="../../provinces/ifugao.html" target="_top" data-region="Cordillera Administrative Region (CAR)"><path class="prov" id="ifugao" d="M337.8,271.6L338.6,277.0L338.2,284.3L335.6,288.3L331.7,290.2L328.0,290.1L326.3,292.2L322.4,293.4L321.7,294.8L320.6,298.9L317.8,302.1L314.7,303.0L291.3,306.7L290.5,302.4L289.8,292.1L287.8,288.6L292.6,288.8L294.4,286.8L296.6,281.1L299.1,278.8L305.2,276.6L311.9,277.1L315.7,276.6L320.1,274.2L328.8,271.6L337.8,271.6Z"><title>Ifugao — Cordillera Administrative Region (CAR)</title></path></a>
<a href="../../provinces/iligan.html" target="_top" data-region="Northern Mindanao (Region X)"><path class="prov" id="iligan" d="M529.4,917.0L527.2,915.9L530.3,911.0L529.3,907.9L537.7,904.1L542.0,905.9L548.1,910.3L549.4,912.7L551.8,914.0L551.8,914.0L551.9,917.8L551.0,922.7L551.8,924.9L556.0,930.7L555.9,930.7L553.0,929.3L544.9,922.0L539.1,919.0L536.2,915.0L532.0,915.7L532.0,915.7L529.4,917.0Z"><title>Iligan — Northern Mindanao (Region X)</title></path></a>
<a href="../../provinces/ilocos-norte.html" target="_top" data-region="Ilocos (Region I)"><path class="prov" id="ilocos-norte" d="M259.1,212.1L262.8,204.1L262.4,197.8L266.4,189.7L265.9,188.6L269.2,183.3L270.7,178.0L270.6,175.1L269.1,170.3L269.7,168.1L272.6,165.5L278.1,165.8L283.7,164.0L284.3,159.5L285.3,158.6L289.3,158.3L292.1,162.7L294.5,163.8L299.3,160.8L297.7,164.6L296.5,172.4L295.7,177.5L296.4,182.1L295.5,185.1L293.2,186.5L293.5,188.7L297.2,190.8L297.8,193.3L295.5,196.4L294.9,199.3L295.5,205.1L294.8,207.2L293.3,208.5L287.1,208.9L281.2,212.5L278.1,215.8L272.5,217.7L269.2,221.6L266.8,226.1L264.8,223.9L267.0,214.3L264.3,212.0L259.1,212.1Z"><title>Ilocos Norte — Ilocos (Region I)</title></path></a>
<a href="../../provinces/ilocos-sur.html" target="_top" data-region="Ilocos (Region I)"><path class="prov" id="ilocos-sur" d="M256.2,282.9L258.3,279.8L258.9,276.6L257.7,264.0L256.9,261.0L257.5,257.8L257.3,253.6L259.7,250.4L259.3,246.4L257.0,241.0L257.1,239.4L252.8,237.8L252.3,236.5L253.8,227.8L257.3,226.4L258.3,222.9L256.6,220.2L258.8,217.2L259.1,212.1L264.3,212.0L267.0,214.3L264.8,223.9L266.8,226.1L262.7,234.4L261.6,240.9L265.6,240.7L268.9,241.5L269.9,244.4L266.1,250.5L266.2,252.5L268.8,255.0L271.5,255.5L272.6,257.4L275.3,257.8L276.6,262.9L279.7,266.1L281.3,265.9L285.4,262.1L289.6,264.2L287.2,265.0L285.2,267.0L283.2,272.2L283.5,280.3L282.5,283.2L280.0,284.2L274.6,284.9L272.9,287.5L271.5,299.5L269.7,302.5L266.4,297.9L266.7,293.5L264.2,288.2L265.1,284.5L264.4,283.2L258.4,283.8L256.2,282.9Z"><title>Ilocos Sur — Ilocos (Region I)</title></path></a>
<a href="../../provinces/iloilo.html" target="_top" data-region="Western Visayas (Region VI)"><path class="prov" id="iloilo" d="M400.2,736.4L388.2,738.4L384.9,740.0L382.6,739.7L377.9,743.3L373.6,745.0L368.7,752.8L366.8,750.5L368.8,740.0L371.7,736.2L376.9,732.9L380.1,729.0L383.9,720.8L386.3,718.8L387.2,715.4L389.3,713.7L390.1,710.0L387.5,705.9L383.6,702.4L387.1,699.1L391.0,698.1L395.3,700.0L399.2,699.8L402.7,700.4L405.9,699.0L406.7,697.0L408.5,696.6L414.5,698.6L422.6,698.2L423.1,700.1L425.7,699.1L428.2,699.8L429.9,698.3L430.0,694.2L435.0,692.2L434.6,688.3L437.4,687.6L441.1,684.1L441.2,681.1L444.2,675.4L446.6,674.0L449.8,670.4L449.8,674.8L447.2,676.4L448.2,679.0L450.6,679.9L449.3,683.1L449.6,686.2L447.1,688.8L446.3,694.5L447.6,700.5L445.8,702.8L441.1,701.9L439.2,707.1L436.1,708.8L434.6,711.2L433.7,709.2L432.0,711.9L430.3,711.2L426.6,712.5L422.4,717.0L423.7,722.8L421.0,727.6L418.7,729.1L415.7,728.2L410.5,731.1L404.6,728.3L401.5,730.4L400.2,736.4Z"><title>Iloilo — Western Visayas (Region VI)</title></path></a>
<a href="../../provinces/iloilo-ph-6986.html" target="_top" data-region="Western Visayas (Region VI)"><path class="prov" id="iloilo-ph-6986" d="M410.5,731.1L408.6,735.7L400.2,736.4L401.5,730.4L404.6,728.3L410.5,731.1Z"><title>Iloilo — Western Visayas (Region VI)</title></path></a>
<a href="../../provinces/isabela.html" target="_top" data-region="Zamboanga Peninsula (Region IX)"><path class="prov" id="isabela" d="M364.3,1023.6L361.2,1024.8L362.1,1022.3L364.6,1021.8L364.3,1023.6ZM359.7,1027.5L365.5,1024.9L369.1,1022.9L369.7,1027.7L372.7,1034.0L363.0,1034.5L361.9,1030.2L359.7,1027.5Z"><title>Isabela — Zamboanga Peninsula (Region IX)</title></path></a>
<a href="../../provinces/isabela-ph-ib.html" target="_top" data-region="Cagayan Valley (Region II)"><path class="prov" id="isabela-ph-ib" d="M385.2,313.7L370.7,313.9L351.6,321.8L349.7,321.2L338.0,306.2L340.3,303.8L340.7,298.7L331.7,290.2L335.6,288.3L338.2,284.3L338.6,277.0L337.8,271.6L338.2,268.7L338.3,259.7L340.0,254.1L341.5,247.4L345.5,242.4L344.3,240.3L355.9,240.0L360.6,238.6L381.3,238.8L382.8,243.7L385.2,247.1L385.9,252.0L388.4,252.0L391.1,253.4L395.0,253.0L398.8,257.0L399.3,258.9L396.9,258.2L397.8,262.2L397.4,267.6L399.8,270.0L403.3,268.0L405.3,271.7L401.3,278.9L400.7,285.9L397.7,293.1L394.2,298.9L392.3,304.1L388.2,311.1L385.2,313.7ZM326.1,303.2L325.9,300.9L325.4,300.0L331.5,298.0L333.3,301.1L332.3,304.8L328.0,304.2L326.1,303.2Z"><title>Isabela — Cagayan Valley (Region II)</title></path></a>
<a href="../../provinces/kalinga.html" target="_top" data-region="Cordillera Administrative Region (CAR)"><path class="prov" id="kalinga" d="M307.7,228.0L314.1,228.1L319.5,226.8L328.8,225.7L338.2,237.0L344.3,240.3L345.5,242.4L341.5,247.4L340.0,254.1L338.3,259.7L328.2,256.1L322.3,259.0L317.3,263.8L312.0,265.4L305.1,264.1L292.6,259.4L293.4,257.1L297.4,250.9L298.5,244.0L300.8,240.7L306.0,237.9L307.0,235.8L305.8,229.6L307.7,228.0Z"><title>Kalinga — Cordillera Administrative Region (CAR)</title></path></a>
<a href="../../provinces/la-union.html" target="_top" data-region="Ilocos (Region I)"><path class="prov" id="la-union" d="M256.2,282.9L258.4,283.8L264.4,283.2L265.1,284.5L264.2,288.2L266.7,293.5L266.4,297.9L269.7,302.5L264.0,308.7L261.7,312.3L261.0,316.0L262.0,324.8L264.6,333.0L261.3,335.0L255.8,334.5L254.7,331.4L252.5,328.5L251.3,328.5L249.7,316.5L248.9,313.8L249.4,310.1L247.4,305.1L249.5,305.0L249.6,300.4L250.9,297.9L250.1,293.1L251.1,289.3L252.8,287.9L256.2,282.9Z"><title>La Union — Ilocos (Region I)</title></path></a>
<a href="../../provinces/laguna.html" target="_top" data-region="CALABARZON (Region IV-A)"><path class="prov" id="laguna" d="M329.2,454.2L333.6,461.5L338.3,473.0L338.5,479.8L335.4,484.4L332.0,490.3L325.9,492.0L320.7,495.6L315.1,498.4L315.1,496.8L312.1,495.1L311.0,487.5L309.2,485.5L305.7,484.7L298.7,485.0L298.4,482.9L300.6,478.1L299.8,476.8L301.8,472.5L297.5,471.7L297.7,469.4L301.3,467.6L306.7,467.4L306.1,462.6L305.5,457.4L308.8,459.0L311.2,465.1L312.6,472.3L313.7,473.7L315.2,470.3L313.4,467.0L313.2,461.6L314.1,459.1L316.3,458.7L320.3,463.5L320.3,467.4L318.2,472.4L318.4,474.5L324.0,470.6L322.1,461.8L323.9,457.0L329.2,454.2L329.2,454.2Z"><title>Laguna — CALABARZON (Region IV-A)</title></path></a>
<a href="../../provinces/lanao-del-norte.html" target="_top" data-region="Northern Mindanao (Region X)"><path class="prov" id="lanao-del-norte" d="M500.4,953.0L495.6,952.4L490.5,946.3L489.1,945.3L482.6,943.6L488.3,939.4L489.1,938.1L487.9,933.7L491.7,931.5L501.3,923.8L503.7,923.2L508.1,919.2L513.0,917.6L521.6,917.6L527.2,915.9L529.4,917.0L532.0,915.7L532.0,915.7L531.5,918.0L531.9,923.3L528.9,928.9L524.9,929.1L522.2,930.2L519.7,936.3L517.5,938.3L514.7,938.4L514.0,944.7L510.9,948.3L510.0,953.1L507.3,952.9L501.0,950.4L500.4,953.0Z"><title>Lanao del Norte — Northern Mindanao (Region X)</title></path></a>
<a href="../../provinces/lanao-del-sur.html" target="_top" data-region="Autonomous Region in Muslim Mindanao (ARMM)"><path class="prov" id="lanao-del-sur" d="M522.6,972.7L520.9,970.5L517.4,963.3L515.3,960.2L507.6,955.1L504.0,953.3L500.4,953.0L501.0,950.4L507.3,952.9L510.0,953.1L510.9,948.3L514.0,944.7L514.7,938.4L517.5,938.3L519.7,936.3L522.2,930.2L524.9,929.1L528.9,928.9L531.9,923.3L531.5,918.0L532.0,915.7L532.0,915.7L536.2,915.0L539.1,919.0L544.9,922.0L553.0,929.3L555.9,930.7L556.0,930.7L556.0,930.8L558.1,933.1L559.1,934.2L558.7,935.8L555.5,936.1L554.2,937.8L556.7,942.9L558.3,943.6L563.9,951.5L566.3,957.0L569.0,959.5L561.1,958.2L553.3,958.5L549.8,954.6L547.2,953.8L544.1,955.4L544.1,955.3L544.1,955.3L538.2,958.9L522.6,972.7Z"><title>Lanao del Sur — Autonomous Region in Muslim Mindanao (ARMM)</title></path></a>
<a href="../../provinces/lapu-lapu.html" target="_top" data-region="Central Visayas (Region VII)"><path class="prov" id="lapu-lapu" d="M513.1,762.7L508.2,767.7L505.2,767.8L506.2,764.0L509.4,762.7L513.1,762.7Z"><title>Lapu-Lapu — Central Visayas (Region VII)</title></path></a>
<a href="../../provinces/las-pinas.html" target="_top" data-region="National Capital Region"><path class="prov" id="las-pinas" d="M293.9,459.5L294.5,459.0L294.7,458.7L296.5,460.2L298.9,463.7L298.8,464.4L297.5,466.6L294.8,462.8L293.9,459.5Z"><title>Las Pinas — National Capital Region</title></path></a>
<a href="../../provinces/leyte.html" target="_top" data-region="Eastern Visayas (Region VIII)"><path class="prov" id="leyte" d="M537.1,740.6L531.5,743.4L530.3,742.4L532.9,735.9L534.4,734.5L537.1,736.0L537.9,739.6L537.1,740.6ZM546.4,739.6L543.1,740.3L539.3,739.2L539.2,736.6L541.1,734.4L546.1,735.8L547.3,737.7L546.4,739.6ZM584.3,698.9L583.4,700.5L585.5,712.5L585.4,715.6L582.5,724.6L582.1,728.0L583.6,732.0L590.3,734.8L591.1,737.5L593.8,740.7L590.4,742.4L587.5,746.4L584.5,747.7L579.2,748.1L576.3,749.2L573.5,754.4L575.1,764.1L575.0,766.0L571.9,766.9L570.8,769.0L565.1,772.6L567.1,764.0L566.4,760.5L563.1,757.3L563.4,750.2L565.0,747.4L565.3,742.6L567.2,738.2L567.4,733.4L565.8,726.4L562.4,723.0L559.5,717.8L554.4,713.3L557.9,708.8L553.1,702.2L549.9,705.4L545.4,705.6L544.8,708.8L549.2,714.7L550.2,718.5L547.7,722.4L546.2,722.6L541.9,720.6L541.2,718.3L538.6,718.7L539.6,712.1L537.7,708.8L539.7,704.2L538.7,698.3L538.7,691.6L537.4,691.8L534.7,688.4L536.2,686.4L532.0,679.7L531.2,674.2L533.2,673.2L541.4,681.1L544.1,685.6L544.8,681.1L548.8,683.8L550.5,688.3L554.9,691.3L558.3,691.5L563.1,689.6L566.6,686.5L570.3,681.9L576.3,682.8L580.3,685.6L579.6,689.1L575.6,689.8L576.6,696.2L580.4,699.4L584.3,698.9Z"><title>Leyte — Eastern Visayas (Region VIII)</title></path></a>
<a href="../../provinces/lucena.html" target="_top" data-region="CALABARZON (Region IV-A)"><path class="prov" id="lucena" d="M341.5,502.4L338.2,503.3L335.2,504.6L331.6,498.8L337.6,496.0L341.5,502.4Z"><title>Lucena — CALABARZON (Region IV-A)</title></path></a>
<a href="../../provinces/maguindanao.html" target="_top" data-region="Autonomous Region in Muslim Mindanao (ARMM)"><path class="prov" id="maguindanao" d="M544.1,955.3L544.1,955.4L543.1,964.8L543.6,967.2L546.2,972.5L534.7,989.3L534.2,991.3L538.0,991.5L542.1,986.8L546.1,987.4L545.7,990.2L543.1,996.2L545.8,999.5L551.2,1001.4L551.3,1003.9L552.8,1005.1L559.0,1007.5L562.9,1004.1L561.1,1000.2L559.0,998.2L563.0,994.8L561.2,991.1L563.0,989.2L567.2,995.6L568.5,998.4L567.3,1003.8L568.3,1005.8L571.1,1005.7L571.4,1020.7L575.7,1023.5L574.3,1026.7L576.6,1030.0L571.3,1029.8L567.2,1026.9L562.9,1020.4L561.0,1019.9L562.2,1015.1L557.0,1015.2L557.2,1014.0L551.7,1016.3L552.5,1019.0L551.2,1021.8L544.9,1023.8L530.0,1023.7L526.7,1021.2L513.3,1021.6L513.3,1018.5L510.4,1019.5L508.1,1017.0L508.7,1014.2L508.8,1006.5L509.7,1002.8L512.8,995.6L514.3,994.1L519.9,991.1L523.9,987.5L527.2,990.7L530.9,991.9L532.7,987.8L528.8,981.1L526.4,980.7L526.9,977.4L528.5,974.6L524.1,974.2L522.6,972.7L538.2,958.9L538.2,958.9L544.1,955.3L544.1,955.3Z"><title>Maguindanao — Autonomous Region in Muslim Mindanao (ARMM)</title></path></a>
<a href="../../provinces/makati.html" target="_top" data-region="National Capital Region"><path class="prov" id="makati" d="M301.2,454.5L302.3,455.0L302.4,455.8L302.1,456.1L302.1,456.6L300.6,456.4L298.9,457.2L298.3,457.0L297.1,454.9L298.5,453.7L299.8,454.6L301.2,454.5Z"><title>Makati — National Capital Region</title></path></a>
<a href="../../provinces/malabon.html" target="_top" data-region="National Capital Region"><path class="prov" id="malabon" d="M297.1,447.2L294.7,448.2L294.5,449.2L293.9,448.7L292.1,445.1L293.5,446.2L293.4,445.4L294.8,447.0L297.1,447.2Z"><title>Malabon — National Capital Region</title></path></a>
<a href="../../provinces/mandaluyong-city.html" target="_top" data-region="National Capital Region"><path class="prov" id="mandaluyong-city" d="M298.5,453.7L299.4,452.8L299.8,453.0L301.8,452.3L301.8,453.1L301.5,454.0L301.2,454.5L299.8,454.6L298.5,453.7Z"><title>Mandaluyong City — National Capital Region</title></path></a>
<a href="../../provinces/mandaue.html" target="_top" data-region="Central Visayas (Region VII)"><path class="prov" id="mandaue" d="M508.5,758.9L508.0,762.6L505.3,763.8L503.8,761.1L505.3,757.2L508.5,758.9Z"><title>Mandaue — Central Visayas (Region VII)</title></path></a>
<a href="../../provinces/manila.html" target="_top" data-region="National Capital Region"><path class="prov" id="manila" d="M299.4,452.8L298.5,453.7L297.1,454.9L295.3,454.9L293.8,452.4L293.0,449.8L295.1,449.8L296.1,449.7L296.8,449.9L296.7,450.6L298.8,452.1L299.4,452.8Z"><title>Manila — National Capital Region</title></path></a>
<a href="../../provinces/marikina.html" target="_top" data-region="National Capital Region"><path class="prov" id="marikina" d="M303.2,451.3L304.8,447.7L305.7,447.3L307.4,447.9L307.2,450.2L305.1,451.3L303.6,450.8L303.2,451.3Z"><title>Marikina — National Capital Region</title></path></a>
<a href="../../provinces/marinduque.html" target="_top" data-region="MIMAROPA (Region IV-B)"><path class="prov" id="marinduque" d="M369.8,548.9L369.9,551.8L366.5,553.9L360.6,548.9L357.4,547.8L354.0,543.6L353.9,535.7L356.5,530.6L357.0,527.4L359.1,528.2L360.6,530.5L366.3,530.0L367.0,528.6L369.5,531.2L369.9,533.0L375.2,534.7L374.6,538.8L376.2,540.5L375.6,542.6L369.8,548.9Z"><title>Marinduque — MIMAROPA (Region IV-B)</title></path></a>
<a href="../../provinces/masbate.html" target="_top" data-region="Bicol (Region V)"><path class="prov" id="masbate" d="M480.1,615.7L483.6,614.3L488.3,617.9L492.9,625.6L494.8,627.5L494.8,623.2L498.7,626.6L501.1,625.7L506.1,633.5L508.3,635.1L509.4,638.2L513.5,644.4L509.5,640.5L510.3,643.5L513.8,650.1L513.5,655.7L514.8,659.7L513.5,661.0L511.2,656.8L504.1,651.3L501.7,650.5L499.3,647.4L494.4,646.5L492.8,647.3L489.0,644.5L491.4,642.6L485.2,638.0L484.4,635.5L482.1,635.4L481.2,632.6L476.7,627.1L472.8,625.4L468.4,626.7L463.5,634.2L461.9,634.7L457.1,640.7L451.1,646.2L448.9,646.2L449.8,641.6L451.7,640.4L453.2,635.6L453.5,631.5L457.9,629.3L456.6,627.1L459.1,624.1L453.7,624.7L453.6,621.9L455.9,618.9L457.6,610.4L455.5,607.5L454.7,599.1L455.3,598.0L461.0,599.8L463.5,601.5L462.3,601.5L463.5,605.3L461.4,607.3L461.4,609.5L466.5,603.5L470.1,604.1L474.7,607.7L477.1,607.7L481.6,613.7L480.1,615.7ZM490.4,611.6L479.7,596.0L481.5,591.3L484.2,593.5L489.2,597.0L493.1,607.0L494.8,616.2L490.4,611.6ZM451.3,579.0L445.9,574.2L440.6,568.4L436.2,567.3L434.6,565.5L434.1,560.6L437.3,559.3L437.6,557.6L441.0,559.4L444.9,565.5L446.6,566.9L449.5,573.1L452.4,575.4L456.8,576.1L458.1,578.4L458.5,582.1L463.8,587.7L464.9,590.9L462.4,589.1L457.6,582.3L455.1,580.2L451.3,579.0Z"><title>Masbate — Bicol (Region V)</title></path></a>
<a href="../../provinces/mindoro-occidental.html" target="_top" data-region="MIMAROPA (Region IV-B)"><path class="prov" id="mindoro-occidental" d="M304.4,629.2L301.8,628.1L298.2,622.5L299.6,620.5L301.7,621.4L304.4,629.2ZM232.6,504.6L236.9,506.8L242.1,509.1L244.4,512.9L243.0,514.9L245.2,516.6L243.9,518.6L239.6,514.1L236.4,513.1L231.8,509.7L230.9,506.3L232.6,504.6ZM313.3,566.0L313.0,624.8L311.7,625.3L309.1,623.2L303.4,622.6L301.5,617.3L294.1,610.0L291.1,604.8L289.5,603.4L290.4,598.8L289.3,594.5L285.2,588.7L281.2,587.6L280.1,582.1L278.9,580.2L279.9,578.2L279.8,574.1L278.5,567.7L274.2,561.2L270.4,554.5L267.0,553.3L264.6,551.2L261.3,551.1L262.2,549.7L258.9,545.9L257.5,538.4L256.1,536.7L253.3,537.5L251.0,539.8L249.0,539.6L246.7,535.4L247.8,532.2L250.3,530.0L253.6,529.4L258.5,530.6L265.1,530.5L268.7,531.8L275.2,532.2L277.3,533.9L288.5,531.4L288.9,535.4L288.2,538.7L280.1,549.4L309.7,562.5L313.3,566.0Z"><title>Mindoro Occidental — MIMAROPA (Region IV-B)</title></path></a>
<a href="../../provinces/mindoro-oriental.html" target="_top" data-region="MIMAROPA (Region IV-B)"><path class="prov" id="mindoro-oriental" d="M288.5,531.4L290.9,531.4L292.5,529.5L294.4,529.5L293.0,531.5L299.1,538.1L303.7,538.0L304.6,541.1L306.5,538.2L310.0,536.1L311.5,538.8L319.6,545.7L322.6,550.5L326.5,552.0L327.6,558.2L333.3,558.1L334.9,561.8L330.6,565.7L330.1,569.0L330.7,574.6L329.7,578.5L330.2,585.1L333.0,589.8L334.5,594.2L333.5,597.0L330.6,601.0L326.7,603.1L326.1,607.8L324.8,610.8L327.1,614.9L322.9,614.1L322.6,617.8L320.7,617.4L314.8,621.3L313.0,624.8L313.3,566.0L309.7,562.5L280.1,549.4L288.2,538.7L288.9,535.4L288.5,531.4Z"><title>Mindoro Oriental — MIMAROPA (Region IV-B)</title></path></a>
<a href="../../provinces/misamis-occidental.html" target="_top" data-region="Northern Mindanao (Region X)"><path class="prov" id="misamis-occidental" d="M478.3,914.7L477.7,886.6L480.1,889.2L481.1,886.2L483.6,884.2L490.3,885.9L492.9,887.3L494.9,892.4L499.2,898.7L500.7,905.0L501.0,913.8L502.1,917.9L501.2,920.3L493.6,927.1L487.7,928.8L487.1,930.7L484.5,930.8L483.3,929.3L479.5,928.5L478.3,926.4L478.0,922.0L478.3,914.7Z"><title>Misamis Occidental — Northern Mindanao (Region X)</title></path></a>
<a href="../../provinces/misamis-oriental.html" target="_top" data-region="Northern Mindanao (Region X)"><path class="prov" id="misamis-oriental" d="M529.3,907.9L532.0,901.2L533.7,894.0L537.1,889.2L539.6,887.2L544.3,885.9L545.0,889.1L549.4,890.6L551.6,893.0L547.2,896.6L549.4,897.3L549.2,899.4L546.6,901.1L542.0,905.9L537.7,904.1L529.3,907.9ZM570.0,893.8L564.8,890.5L566.2,888.0L564.6,884.0L564.6,880.9L567.2,877.9L566.6,862.3L567.4,859.3L569.5,857.6L576.3,859.0L578.6,861.3L584.4,864.5L590.9,870.8L596.0,867.5L596.5,861.3L595.4,858.7L597.1,852.5L597.4,856.1L599.3,859.3L605.8,866.8L603.5,874.2L603.6,877.5L605.5,882.0L605.8,888.2L577.5,887.9L573.7,889.1L570.0,893.8Z"><title>Misamis Oriental — Northern Mindanao (Region X)</title></path></a>
<a href="../../provinces/mountain-province.html" target="_top" data-region="Cordillera Administrative Region (CAR)"><path class="prov" id="mountain-province" d="M338.3,259.7L338.2,268.7L337.8,271.6L328.8,271.6L320.1,274.2L315.7,276.6L311.9,277.1L305.2,276.6L299.1,278.8L296.6,281.1L294.4,286.8L292.6,288.8L287.8,288.6L284.9,286.2L282.5,283.2L283.5,280.3L283.2,272.2L285.2,267.0L287.2,265.0L289.6,264.2L292.0,262.7L292.6,259.4L305.1,264.1L312.0,265.4L317.3,263.8L322.3,259.0L328.2,256.1L338.3,259.7Z"><title>Mountain Province — Cordillera Administrative Region (CAR)</title></path></a>
<a href="../../provinces/muntinlupa.html" target="_top" data-region="National Capital Region"><path class="prov" id="muntinlupa" d="M297.5,466.6L298.8,464.4L298.9,463.7L300.6,462.8L300.6,461.7L301.8,461.4L306.1,462.6L306.7,467.4L301.3,467.6L297.7,469.4L297.8,467.4L297.5,466.6Z"><title>Muntinlupa — National Capital Region</title></path></a>
<a href="../../provinces/naga.html" target="_top" data-region="Bicol (Region V)"><path class="prov" id="naga" d="M448.0,523.7L458.9,520.5L464.2,523.6L454.7,527.4L448.0,523.7Z"><title>Naga — Bicol (Region V)</title></path></a>
<a href="../../provinces/navotas.html" target="_top" data-region="National Capital Region"><path class="prov" id="navotas" d="M295.1,449.8L293.0,449.8L292.7,448.0L290.8,445.0L291.3,444.4L292.1,445.1L293.9,448.7L294.5,449.2L295.1,449.8Z"><title>Navotas — National Capital Region</title></path></a>
<a href="../../provinces/negros-occidental.html" target="_top" data-region="Western Visayas (Region VI)"><path class="prov" id="negros-occidental" d="M432.3,741.5L439.9,743.4L443.0,737.0L436.4,732.6L436.1,727.9L434.6,726.4L435.7,722.8L438.3,720.1L444.4,719.1L453.4,714.1L456.8,714.2L461.7,717.3L467.0,717.2L467.2,719.6L470.1,718.0L475.6,719.6L477.0,723.6L479.4,726.4L479.0,729.7L475.2,736.9L473.0,746.5L472.1,748.1L466.1,754.6L464.4,757.9L456.5,756.1L453.8,754.1L448.4,755.8L450.7,764.5L449.8,769.0L439.0,789.0L409.1,827.2L405.8,823.3L404.2,819.8L401.8,818.1L398.0,810.1L396.6,811.2L397.2,807.1L395.1,808.2L395.6,800.3L394.6,798.2L400.3,788.3L406.5,787.3L411.2,788.3L417.1,787.4L424.3,781.3L427.0,781.4L429.4,777.8L427.7,769.9L428.7,760.9L428.0,757.8L425.3,752.1L425.5,747.7L428.1,746.7L432.3,741.5Z"><title>Negros Occidental — Western Visayas (Region VI)</title></path></a>
<a href="../../provinces/negros-oriental.html" target="_top" data-region="Central Visayas (Region VII)"><path class="prov" id="negros-oriental" d="M464.4,757.9L462.9,761.1L462.6,767.5L460.0,773.4L459.0,779.6L453.8,787.5L452.9,790.9L449.4,795.9L450.4,808.5L449.6,811.9L447.9,814.1L450.9,816.2L447.9,818.9L451.1,819.9L452.3,823.6L456.2,826.8L457.4,830.0L461.3,834.0L461.7,837.0L459.7,843.3L454.7,851.1L449.7,854.2L446.2,854.4L440.5,856.4L437.4,855.4L433.3,850.1L430.4,842.9L429.9,838.0L428.7,835.5L424.5,832.6L418.2,832.1L413.4,829.8L411.9,828.1L409.1,827.2L439.0,789.0L449.8,769.0L450.7,764.5L448.4,755.8L453.8,754.1L456.5,756.1L464.4,757.9Z"><title>Negros Oriental — Central Visayas (Region VII)</title></path></a>
<a href="../../provinces/northern-samar.html" target="_top" data-region="Eastern Visayas (Region VIII)"><path class="prov" id="northern-samar" d="M522.4,611.5L521.5,612.2L519.3,609.3L518.9,606.9L520.9,608.0L522.4,611.5ZM603.4,618.6L600.4,620.0L597.4,614.1L594.3,614.0L592.4,617.7L590.4,619.0L585.9,619.7L584.3,621.5L581.0,622.3L573.8,622.0L569.9,624.3L568.2,624.4L563.4,622.1L559.0,624.2L544.3,616.9L540.0,619.7L535.9,620.0L533.9,613.0L529.1,602.3L530.3,598.9L535.0,601.5L538.5,600.5L541.9,601.9L557.9,603.4L571.3,602.2L573.2,600.5L571.9,597.8L575.6,600.3L578.9,598.9L579.3,600.0L585.1,602.2L588.5,598.5L592.6,598.7L600.2,604.3L605.8,611.5L603.2,613.9L604.4,617.0L603.4,618.6Z"><title>Northern Samar — Eastern Visayas (Region VIII)</title></path></a>
<a href="../../provinces/nueva-ecija.html" target="_top" data-region="Central Luzon (Region III)"><path class="prov" id="nueva-ecija" d="M292.7,406.8L289.9,409.2L286.2,410.7L285.8,408.5L282.3,407.0L281.3,403.9L281.4,400.7L279.6,399.0L279.3,395.5L280.0,392.6L279.5,386.3L278.5,383.5L280.7,379.3L279.9,377.8L276.0,377.4L273.6,374.8L272.2,371.0L271.3,363.1L279.0,361.2L282.2,362.0L284.2,365.1L286.2,364.3L289.4,357.4L291.9,354.8L292.5,351.7L289.8,342.8L293.9,340.5L298.7,340.4L304.4,341.7L309.4,344.4L310.6,346.6L311.3,354.5L312.1,357.7L316.3,366.5L322.7,386.1L323.1,391.4L320.6,399.2L318.4,409.8L314.8,409.7L308.7,405.2L305.4,404.0L302.5,404.2L292.7,406.8Z"><title>Nueva Ecija — Central Luzon (Region III)</title></path></a>
<a href="../../provinces/nueva-vizcaya.html" target="_top" data-region="Cagayan Valley (Region II)"><path class="prov" id="nueva-vizcaya" d="M321.7,294.8L324.7,298.6L325.4,300.0L325.9,300.9L326.1,303.2L323.1,318.0L323.8,320.0L328.2,321.2L326.7,326.2L318.3,330.9L318.0,331.5L319.6,340.4L321.3,344.8L329.0,355.9L316.3,366.5L312.1,357.7L311.3,354.5L310.6,346.6L309.4,344.4L304.4,341.7L298.7,340.4L293.9,340.5L289.8,342.8L288.1,338.2L280.7,335.4L280.6,333.2L282.2,328.9L283.7,327.4L287.8,326.4L289.1,324.7L291.2,318.7L291.3,306.7L314.7,303.0L317.8,302.1L320.6,298.9L321.7,294.8Z"><title>Nueva Vizcaya — Cagayan Valley (Region II)</title></path></a>
<a href="../../provinces/olongapo.html" target="_top" data-region="Central Luzon (Region III)"><path class="prov" id="olongapo" d="M246.2,436.4L245.1,434.7L241.0,430.9L246.1,427.1L250.9,428.7L258.4,428.6L256.0,432.3L250.4,433.8L247.1,436.6L246.2,436.4Z"><title>Olongapo — Central Luzon (Region III)</title></path></a>
<a href="../../provinces/ormoc.html" target="_top" data-region="Eastern Visayas (Region VIII)"><path class="prov" id="ormoc" d="M554.4,713.3L551.6,713.4L549.2,714.7L544.8,708.8L545.4,705.6L549.9,705.4L553.1,702.2L557.9,708.8L554.4,713.3Z"><title>Ormoc — Eastern Visayas (Region VIII)</title></path></a>
<a href="../../provinces/palawan.html" target="_top" data-region="MIMAROPA (Region IV-B)"><path class="prov" id="palawan" d="M113.3,999.4L114.8,1001.5L113.0,1001.5L112.9,1004.7L107.5,1003.7L106.5,1000.5L108.4,999.5L113.3,999.4ZM6.4,922.7L3.1,920.9L6.8,918.5L8.4,921.6L6.4,922.7ZM18.5,917.2L15.3,917.1L14.8,915.3L17.3,915.7L18.5,917.2ZM12.4,912.4L10.0,912.5L9.4,910.5L12.1,911.0L12.4,912.4ZM26.8,905.0L29.5,906.6L28.4,914.3L24.7,915.2L23.3,909.1L24.3,905.1L26.8,905.0ZM20.9,905.1L22.8,906.7L19.3,909.2L16.9,907.6L21.4,903.6L20.9,905.1ZM162.2,742.0L164.9,743.6L161.8,743.4L160.5,744.3L159.2,742.2L162.2,742.0ZM300.9,726.2L297.1,726.4L296.5,723.1L301.3,719.9L300.9,726.2ZM172.8,711.1L171.9,715.8L169.9,713.3L170.3,710.8L172.8,711.1ZM197.7,710.3L195.1,711.8L192.7,709.1L192.8,705.3L196.5,707.4L197.7,710.3ZM292.4,703.5L290.3,701.9L292.9,700.8L293.6,702.1L292.4,703.5ZM196.6,699.2L193.1,702.3L192.6,699.5L195.3,697.8L196.6,699.2ZM201.2,689.4L199.8,693.3L198.8,692.6L198.5,690.0L201.2,689.4ZM237.1,656.4L237.5,658.0L235.6,658.8L233.1,657.0L237.1,656.4ZM243.5,653.1L242.7,653.6L238.2,644.0L243.5,642.8L243.9,645.6L242.5,646.4L243.5,653.1ZM105.2,808.9L123.6,819.2L120.2,824.6L117.7,827.1L116.2,830.4L113.2,834.1L108.4,837.0L103.5,842.8L98.4,843.7L95.2,845.3L90.7,845.3L86.6,847.4L81.1,860.1L77.9,864.7L70.3,868.8L65.1,872.7L60.2,877.9L52.5,880.5L46.8,880.1L45.1,880.7L44.6,885.4L41.1,891.9L38.2,891.3L31.4,893.3L27.0,895.8L26.0,897.7L22.9,899.7L18.1,904.1L17.4,901.8L20.0,896.6L20.0,892.1L24.3,884.5L25.2,881.9L29.0,878.8L31.5,874.2L34.5,873.4L36.9,871.1L42.1,863.3L49.6,856.7L52.0,851.9L56.2,850.2L56.7,851.4L60.2,849.9L62.4,844.4L67.5,841.5L70.3,837.4L74.7,837.7L76.5,837.0L77.4,839.5L81.2,835.3L86.5,832.0L87.0,828.6L91.3,826.0L93.1,821.9L97.6,818.9L102.4,812.9L103.6,808.9L105.2,808.9ZM2.1,926.4L4.4,923.8L9.0,923.3L9.2,926.3L8.5,928.9L9.5,937.7L7.2,940.4L3.2,941.2L0.0,933.7L0.6,923.8L2.1,926.4ZM207.9,743.6L211.9,738.4L220.8,742.1L223.5,744.3L221.9,745.0L222.0,746.2L219.0,746.5L218.5,747.9L216.0,744.9L216.4,750.4L208.6,752.9L207.3,752.0L206.7,746.3L204.9,745.8L207.9,743.6ZM210.8,675.7L213.7,675.1L214.4,677.8L213.9,680.6L211.2,685.1L211.2,681.6L208.5,681.1L206.8,683.0L202.9,679.0L203.8,677.8L206.8,680.5L207.9,676.6L209.8,679.1L212.1,677.0L210.8,675.7ZM220.3,659.3L223.6,656.8L221.8,654.9L220.5,657.1L218.4,656.3L216.5,652.7L217.9,651.8L214.2,646.8L213.2,643.2L216.1,644.2L217.9,641.4L221.1,644.4L220.8,645.2L225.8,645.6L223.8,646.6L227.3,649.5L227.2,653.9L229.2,655.4L227.2,657.4L228.3,658.9L224.4,663.2L221.1,664.4L220.2,663.2L220.3,659.3ZM244.2,630.5L248.5,635.4L246.6,637.7L248.5,638.1L248.0,640.3L243.4,640.0L240.7,641.2L237.1,638.9L233.8,638.0L233.3,642.0L231.4,642.5L229.5,640.0L226.5,640.4L222.6,638.1L219.7,633.7L219.0,630.2L216.3,624.9L213.8,628.4L215.7,616.5L218.7,617.0L219.2,619.3L225.4,621.7L232.2,628.1L237.7,632.1L239.8,631.1L239.9,624.3L241.7,626.8L242.3,630.7L244.2,630.5ZM149.9,762.7L152.2,762.2L152.9,759.3L149.4,759.6L149.0,757.9L151.3,755.2L155.6,756.2L158.2,753.8L156.6,751.8L159.2,749.2L159.6,756.0L163.6,753.9L167.1,749.5L170.7,747.9L168.4,745.3L171.5,744.3L173.7,742.0L175.6,732.3L173.7,728.7L170.6,728.8L170.3,725.7L167.0,722.9L169.5,720.0L167.0,716.3L168.8,715.8L172.0,717.1L171.0,718.5L171.6,721.5L174.9,725.0L181.5,729.5L182.8,732.1L184.6,731.1L182.5,727.1L183.8,724.6L182.2,723.0L177.6,721.8L175.9,719.6L176.9,717.1L173.9,716.3L174.6,710.5L176.9,712.1L174.7,707.5L175.2,704.8L178.2,708.1L180.3,708.7L182.2,703.4L179.1,698.7L182.1,695.8L181.6,690.6L182.9,687.7L185.4,686.3L187.5,681.6L189.0,687.7L191.0,687.9L192.2,693.4L190.5,699.4L188.3,703.8L191.4,708.1L192.2,711.2L191.2,712.3L188.7,711.1L187.3,714.5L187.3,719.9L188.3,724.1L190.8,725.5L193.6,724.2L193.9,733.0L193.3,736.2L197.8,736.1L198.8,737.7L196.4,737.7L199.0,745.0L202.8,747.5L201.7,749.2L198.7,750.2L197.2,752.5L191.0,758.0L184.5,757.5L176.1,761.0L171.0,765.9L167.4,771.8L166.1,778.7L164.4,780.7L156.3,772.8L156.8,769.9L149.9,762.7Z"><title>Palawan — MIMAROPA (Region IV-B)</title></path></a>
<a href="../../provinces/pampanga.html" target="_top" data-region="Central Luzon (Region III)"><path class="prov" id="pampanga" d="M281.3,403.9L282.3,407.0L285.8,408.5L286.2,410.7L289.9,409.2L292.7,406.8L291.5,409.7L292.9,414.8L290.3,421.7L284.9,427.3L277.5,430.4L273.1,438.7L271.5,438.0L270.1,434.8L268.1,435.8L269.0,430.9L267.6,429.6L266.7,434.3L264.8,435.1L261.4,432.8L258.8,426.7L256.6,422.8L256.4,419.2L252.7,415.4L252.0,411.9L253.4,410.1L254.9,410.0L259.4,406.4L265.9,404.1L275.7,403.5L279.4,402.8L281.3,403.9ZM271.4,414.1L271.5,409.6L266.7,409.7L262.6,412.0L265.5,412.7L268.2,415.0L271.4,414.1Z"><title>Pampanga — Central Luzon (Region III)</title></path></a>
<a href="../../provinces/pangasinan.html" target="_top" data-region="Ilocos (Region I)"><path class="prov" id="pangasinan" d="M228.0,332.5L227.1,332.6L222.3,327.2L225.8,323.8L228.1,326.6L228.0,332.5ZM253.1,341.8L255.8,337.7L255.8,334.5L261.3,335.0L264.6,333.0L274.6,336.4L280.7,335.4L288.1,338.2L289.8,342.8L292.5,351.7L291.9,354.8L289.4,357.4L286.2,364.3L284.2,365.1L282.2,362.0L279.0,361.2L271.3,363.1L269.5,359.3L266.7,366.8L261.6,370.4L254.9,367.6L252.2,370.1L250.4,374.0L244.3,377.7L243.4,374.9L239.8,369.5L236.9,362.5L233.1,362.2L227.8,360.1L223.3,363.7L219.3,363.6L220.1,360.0L218.7,355.4L217.1,352.9L215.2,352.4L211.1,355.3L210.2,353.1L210.4,344.8L211.9,339.1L210.4,334.3L212.4,325.7L214.6,322.4L220.2,321.1L221.9,321.6L222.5,324.2L220.8,331.0L224.8,332.5L228.6,336.2L231.0,336.3L233.9,338.3L234.8,344.4L240.4,347.1L245.5,345.8L248.1,350.9L251.3,350.1L255.7,346.6L253.1,341.8Z"><title>Pangasinan — Ilocos (Region I)</title></path></a>
<a href="../../provinces/paranaque.html" target="_top" data-region="National Capital Region"><path class="prov" id="paranaque" d="M294.7,458.7L295.3,458.1L295.6,456.6L297.2,458.5L299.8,458.7L300.7,459.0L300.6,461.7L300.6,462.8L298.9,463.7L296.5,460.2L294.7,458.7Z"><title>Paranaque — National Capital Region</title></path></a>
<a href="../../provinces/pasay.html" target="_top" data-region="National Capital Region"><path class="prov" id="pasay" d="M295.6,456.6L295.3,454.9L297.1,454.9L298.3,457.0L298.9,457.2L299.8,458.7L297.2,458.5L295.6,456.6Z"><title>Pasay — National Capital Region</title></path></a>
<a href="../../provinces/pasig.html" target="_top" data-region="National Capital Region"><path class="prov" id="pasig" d="M305.1,451.3L305.0,455.7L305.5,457.4L304.4,456.2L303.2,456.1L302.7,455.6L302.4,455.8L302.3,455.0L301.2,454.5L301.5,454.0L301.8,453.1L303.5,453.1L303.2,451.3L303.6,450.8L305.1,451.3Z"><title>Pasig — National Capital Region</title></path></a>
<a href="../../provinces/pateros.html" target="_top" data-region="National Capital Region"><path class="prov" id="pateros" d="M303.2,456.1L302.6,456.6L302.1,456.6L302.1,456.1L302.4,455.8L302.7,455.6L303.2,456.1Z"><title>Pateros — National Capital Region</title></path></a>
<a href="../../provinces/puerto-princesa.html" target="_top" data-region="MIMAROPA (Region IV-B)"><path class="prov" id="puerto-princesa" d="M123.6,819.2L105.2,808.9L108.4,806.1L116.1,800.6L117.4,797.9L120.8,794.6L122.8,790.3L126.2,786.2L125.4,784.6L130.2,781.8L133.8,775.0L134.1,778.4L133.1,779.4L135.8,780.9L138.7,777.2L137.1,774.5L137.5,770.3L142.4,769.0L145.6,769.3L147.5,766.2L146.8,764.0L149.9,762.7L156.8,769.9L156.3,772.8L164.4,780.7L155.3,784.1L152.0,784.0L146.7,786.0L141.1,786.5L137.0,788.9L133.8,789.2L132.1,792.6L134.4,799.8L133.9,803.7L130.9,803.1L130.8,800.7L128.4,800.7L129.4,806.8L131.3,806.4L132.3,808.6L130.3,808.7L130.0,811.2L127.7,815.1L125.9,815.6L123.6,819.2Z"><title>Puerto Princesa — MIMAROPA (Region IV-B)</title></path></a>
<a href="../../provinces/quezon.html" target="_top" data-region="CALABARZON (Region IV-A)"><path class="prov" id="quezon" d="M393.9,446.6L390.0,446.4L389.8,445.3L395.5,442.8L397.0,444.9L393.9,446.6ZM377.3,435.0L381.9,435.1L382.0,438.1L384.1,438.0L385.6,440.3L384.5,442.2L379.0,438.0L376.1,437.4L374.9,435.1L377.3,435.0ZM341.5,502.4L337.6,496.0L331.6,498.8L335.2,504.6L331.3,506.1L328.5,508.9L324.3,507.2L319.0,503.0L315.1,498.4L320.7,495.6L325.9,492.0L332.0,490.3L335.4,484.4L338.5,479.8L338.3,473.0L333.6,461.5L329.2,454.2L323.2,444.5L321.2,438.0L321.0,431.1L320.7,423.1L320.3,420.6L322.2,421.0L322.1,419.0L325.6,413.7L325.0,411.4L326.0,408.4L328.6,408.0L331.1,409.8L332.9,418.6L336.5,423.9L338.0,429.0L340.3,432.4L338.9,433.4L342.8,438.3L347.2,441.7L348.1,443.6L341.2,444.7L339.7,446.8L339.9,451.3L342.4,460.0L343.5,465.5L348.6,472.0L348.3,475.5L350.2,478.0L348.3,481.6L351.7,486.7L356.5,490.2L362.8,496.2L373.5,500.4L383.6,502.7L383.0,499.5L380.2,496.8L381.6,496.3L388.0,498.2L387.9,494.3L385.2,491.0L380.5,487.9L381.1,482.6L384.6,481.7L385.2,477.8L386.1,479.5L385.7,482.3L386.7,486.4L388.1,485.7L389.3,489.0L390.7,490.4L393.9,488.8L398.1,485.3L401.3,485.1L425.1,496.6L420.7,497.5L410.8,498.6L406.8,500.9L405.3,498.8L403.8,500.8L399.8,500.6L396.7,498.8L397.0,500.9L399.2,502.8L403.3,509.1L403.5,515.2L401.6,516.2L402.5,521.3L406.1,525.4L411.2,528.5L412.0,530.8L407.3,527.7L409.6,531.7L412.7,535.4L414.9,541.1L416.1,552.0L411.8,555.0L408.8,556.0L402.9,551.3L404.0,546.1L402.7,541.9L395.6,532.6L395.1,530.6L391.3,527.8L389.8,525.5L385.5,525.6L385.5,524.6L381.8,523.9L375.5,514.0L371.4,510.1L371.0,511.5L366.1,509.5L363.6,507.2L355.0,503.2L352.1,499.6L347.7,498.1L345.2,501.2L341.5,502.4ZM363.4,479.0L374.7,488.4L379.5,492.1L379.7,495.5L378.4,495.5L364.8,485.5L361.9,480.8L363.4,479.0ZM369.3,442.5L367.7,447.0L363.2,449.4L361.0,447.1L361.6,443.4L362.9,443.2L361.8,437.1L359.0,434.3L359.2,431.8L356.8,428.0L354.8,427.1L355.3,422.4L356.6,420.0L360.1,421.5L361.2,419.7L365.4,419.9L368.0,420.5L368.0,422.6L371.0,423.3L371.3,426.0L368.9,423.8L367.2,424.7L368.4,428.2L365.5,430.1L365.9,435.0L367.3,434.8L368.6,437.8L369.3,442.5Z"><title>Quezon — CALABARZON (Region IV-A)</title></path></a>
<a href="../../provinces/quezon-city.html" target="_top" data-region="National Capital Region"><path class="prov" id="quezon-city" d="M307.7,440.4L307.1,443.3L305.7,447.3L304.8,447.7L303.2,451.3L303.5,453.1L301.8,453.1L301.8,452.3L299.2,451.5L298.8,452.1L296.7,450.6L296.8,449.9L297.4,448.3L299.3,446.2L299.4,445.7L298.6,445.1L300.4,442.8L303.1,442.7L305.0,440.9L306.0,440.2L307.7,440.4Z"><title>Quezon City — National Capital Region</title></path></a>
<a href="../../provinces/quirino.html" target="_top" data-region="Cagayan Valley (Region II)"><path class="prov" id="quirino" d="M326.1,303.2L328.0,304.2L332.3,304.8L335.9,304.8L338.0,306.2L349.7,321.2L351.6,321.8L370.7,313.9L359.1,330.2L354.5,334.7L329.0,355.9L321.3,344.8L319.6,340.4L318.0,331.5L318.3,330.9L326.7,326.2L328.2,321.2L323.8,320.0L323.1,318.0L326.1,303.2Z"><title>Quirino — Cagayan Valley (Region II)</title></path></a>
<a href="../../provinces/rizal.html" target="_top" data-region="CALABARZON (Region IV-A)"><path class="prov" id="rizal" d="M329.2,454.2L323.9,457.0L322.1,461.8L324.0,470.6L318.4,474.5L318.2,472.4L320.3,467.4L320.3,463.5L316.3,458.7L314.1,459.1L313.2,461.6L313.4,467.0L315.2,470.3L313.7,473.7L312.6,472.3L311.2,465.1L308.8,459.0L305.5,457.4L305.0,455.7L305.1,451.3L307.2,450.2L307.4,447.9L305.7,447.3L307.1,443.3L307.7,440.4L311.4,435.6L315.8,434.0L318.6,431.0L321.0,431.1L321.2,438.0L323.2,444.5L329.2,454.2Z"><title>Rizal — CALABARZON (Region IV-A)</title></path></a>
<a href="../../provinces/romblon.html" target="_top" data-region="MIMAROPA (Region IV-B)"><path class="prov" id="romblon" d="M388.9,604.8L386.8,606.8L384.9,604.1L384.5,599.3L386.8,597.2L389.0,602.2L388.9,604.8ZM345.6,572.0L347.8,573.6L346.8,575.7L344.3,573.1L345.6,572.0ZM413.1,606.9L415.9,612.0L414.6,618.1L411.3,620.8L406.2,618.1L403.3,613.8L397.6,611.4L396.9,607.6L401.2,605.4L409.2,605.5L413.1,606.9ZM368.1,629.8L368.1,633.5L366.0,631.8L366.1,629.6L364.2,629.4L364.8,626.2L366.7,625.8L366.9,623.3L364.7,622.6L361.0,619.1L362.1,613.5L365.3,611.2L366.3,609.0L366.7,604.0L366.1,599.6L368.2,596.7L374.3,594.5L375.1,592.8L377.3,593.5L378.0,595.3L376.0,596.4L376.5,600.4L374.4,607.7L373.8,613.0L372.5,618.2L369.4,625.6L370.0,627.5L368.1,629.8Z"><title>Romblon — MIMAROPA (Region IV-B)</title></path></a>
<a href="../../provinces/samar.html" target="_top" data-region="Eastern Visayas (Region VIII)"><path class="prov" id="samar" d="M571.0,669.5L570.2,673.5L569.2,674.5L565.9,668.9L562.6,666.3L561.3,663.1L562.1,661.1L565.8,663.4L567.9,665.8L569.0,668.9L571.0,669.5ZM522.3,638.1L520.0,637.2L521.3,635.5L525.9,635.6L522.3,638.1ZM592.4,617.7L591.0,626.7L588.6,631.2L588.6,634.5L589.8,640.8L595.6,639.4L597.1,640.6L599.2,645.8L601.4,672.5L601.9,674.5L605.6,680.5L606.3,683.0L605.4,688.2L601.9,694.5L598.8,706.4L596.8,703.7L595.7,696.8L593.8,693.9L591.0,692.8L584.4,692.9L581.5,692.3L580.8,690.3L581.6,682.8L577.9,680.4L575.0,677.0L573.9,679.2L570.2,678.4L569.0,676.4L571.9,673.9L574.1,673.5L573.5,672.0L577.6,672.0L581.2,668.0L580.6,664.6L583.6,660.4L585.0,659.7L581.5,657.1L576.1,659.5L573.5,658.1L569.2,652.0L566.4,651.1L567.4,648.1L565.2,648.2L562.4,646.1L561.7,642.5L558.1,638.7L552.5,636.9L550.2,637.3L544.8,633.8L538.6,626.9L535.9,620.0L540.0,619.7L544.3,616.9L559.0,624.2L563.4,622.1L568.2,624.4L569.9,624.3L573.8,622.0L581.0,622.3L584.3,621.5L585.9,619.7L590.4,619.0L592.4,617.7Z"><title>Samar — Eastern Visayas (Region VIII)</title></path></a>
<a href="../../provinces/san-juan.html" target="_top" data-region="National Capital Region"><path class="prov" id="san-juan" d="M301.8,452.3L299.8,453.0L299.4,452.8L298.8,452.1L299.2,451.5L301.8,452.3Z"><title>San Juan — National Capital Region</title></path></a>
<a href="../../provinces/santiago.html" target="_top" data-region="Cagayan Valley (Region II)"><path class="prov" id="santiago" d="M325.4,300.0L324.7,298.6L321.7,294.8L322.4,293.4L326.3,292.2L328.0,290.1L331.7,290.2L340.7,298.7L340.3,303.8L338.0,306.2L335.9,304.8L332.3,304.8L333.3,301.1L331.5,298.0L325.4,300.0Z"><title>Santiago — Cagayan Valley (Region II)</title></path></a>
<a href="../../provinces/sarangani.html" target="_top" data-region="SOCCSKSARGEN (Region XII)"><path class="prov" id="sarangani" d="M538.5,1064.7L538.5,1064.7L539.5,1061.0L546.1,1063.6L556.7,1070.2L562.1,1072.4L568.2,1075.5L571.0,1076.1L583.4,1076.3L587.0,1076.0L587.3,1079.4L591.6,1079.7L589.9,1084.7L588.5,1086.3L583.6,1085.7L579.0,1086.2L571.6,1082.8L566.5,1080.9L562.2,1080.3L557.4,1077.5L554.1,1076.5L551.5,1074.3L541.4,1068.5L537.7,1066.9L537.8,1066.2L538.1,1065.5L538.5,1064.7L538.5,1064.7ZM600.8,1069.5L600.8,1062.7L602.9,1059.2L603.1,1056.9L601.4,1055.8L593.4,1053.0L588.8,1051.5L590.2,1048.1L593.6,1044.7L595.5,1047.6L601.4,1052.2L604.2,1053.1L614.3,1053.2L617.0,1054.5L620.5,1060.5L620.2,1066.9L621.6,1068.8L621.6,1072.5L618.2,1082.4L618.2,1088.2L617.0,1088.6L610.9,1102.9L605.8,1106.6L605.4,1100.2L603.7,1096.8L600.8,1096.1L599.5,1093.3L596.6,1091.0L598.1,1086.4L603.6,1077.8L603.8,1074.9L602.3,1070.1L600.8,1069.5Z"><title>Sarangani — SOCCSKSARGEN (Region XII)</title></path></a>
<a href="../../provinces/siquijor.html" target="_top" data-region="Central Visayas (Region VII)"><path class="prov" id="siquijor" d="M482.0,839.8L482.4,837.9L485.4,837.9L488.7,843.0L487.4,844.4L490.2,848.1L487.9,850.0L484.9,850.2L484.2,851.7L478.6,850.7L472.7,846.4L472.3,844.6L478.8,842.6L482.0,839.8Z"><title>Siquijor — Central Visayas (Region VII)</title></path></a>
<a href="../../provinces/sorsogon.html" target="_top" data-region="Bicol (Region V)"><path class="prov" id="sorsogon" d="M504.7,559.9L509.9,562.7L515.0,567.8L517.5,563.1L522.4,564.3L522.5,567.0L519.7,569.2L517.6,574.5L518.8,577.2L519.6,583.2L518.6,591.9L515.7,595.4L516.2,600.6L514.2,601.8L508.2,601.5L504.6,596.7L500.8,594.3L498.2,589.1L498.1,583.0L494.6,580.8L497.9,580.3L499.6,577.8L502.7,580.1L505.1,579.5L505.6,577.6L509.5,577.2L511.4,574.9L511.0,571.7L506.4,571.8L501.7,570.3L499.6,574.9L496.8,577.5L492.1,577.7L489.7,579.8L489.5,576.4L486.4,577.0L488.2,573.9L485.7,574.1L484.3,576.8L480.8,576.2L478.8,573.8L473.4,570.4L477.4,567.3L484.9,565.3L494.3,566.3L502.7,564.6L504.7,559.9Z"><title>Sorsogon — Bicol (Region V)</title></path></a>
<a href="../../provinces/south-cotabato.html" target="_top" data-region="SOCCSKSARGEN (Region XII)"><path class="prov" id="south-cotabato" d="M533.2,1060.5L528.8,1055.3L556.9,1055.4L557.9,1052.4L556.4,1047.4L556.9,1044.3L554.7,1039.4L556.7,1030.0L559.5,1033.6L565.2,1030.2L567.1,1031.8L571.0,1037.5L572.8,1037.8L577.9,1035.6L584.1,1035.0L596.1,1035.4L596.1,1035.4L596.1,1035.4L596.1,1035.4L596.1,1035.4L596.1,1035.4L596.1,1035.4L595.3,1040.8L593.6,1044.7L590.2,1048.1L588.8,1051.5L593.4,1053.0L590.8,1058.1L592.1,1062.4L586.0,1062.1L586.0,1071.7L587.0,1076.0L583.4,1076.3L571.0,1076.1L568.2,1075.5L562.1,1072.4L556.7,1070.2L546.1,1063.6L539.5,1061.0L538.5,1064.7L538.5,1064.7L538.5,1064.7L533.2,1060.5Z"><title>South Cotabato — SOCCSKSARGEN (Region XII)</title></path></a>
<a href="../../provinces/southern-leyte.html" target="_top" data-region="Eastern Visayas (Region VIII)"><path class="prov" id="southern-leyte" d="M602.9,786.4L604.1,790.3L603.0,791.5L601.3,791.3L596.3,783.3L592.5,780.8L590.9,774.8L592.7,773.9L597.6,776.5L599.2,778.3L600.3,783.2L602.9,786.4ZM593.8,740.7L595.6,742.1L595.1,747.2L596.1,750.7L596.1,754.4L598.5,757.8L601.0,759.1L601.7,764.0L600.6,766.8L598.3,767.4L593.4,765.4L592.1,765.7L591.7,769.3L592.8,772.4L590.3,771.6L588.3,769.3L584.8,762.1L584.8,759.5L582.5,758.1L580.4,759.5L581.4,761.7L581.9,771.5L583.7,776.0L585.0,782.4L584.3,784.5L576.1,779.0L573.6,776.1L568.7,775.9L566.1,775.0L565.1,772.6L570.8,769.0L571.9,766.9L575.0,766.0L575.1,764.1L573.5,754.4L576.3,749.2L579.2,748.1L584.5,747.7L587.5,746.4L590.4,742.4L593.8,740.7Z"><title>Southern Leyte — Eastern Visayas (Region VIII)</title></path></a>
<a href="../../provinces/sultan-kudarat.html" target="_top" data-region="SOCCSKSARGEN (Region XII)"><path class="prov" id="sultan-kudarat" d="M575.7,1023.5L594.0,1019.5L594.1,1019.5L594.4,1023.0L597.2,1028.2L596.1,1035.4L596.1,1035.4L596.1,1035.4L584.1,1035.0L577.9,1035.6L572.8,1037.8L571.0,1037.5L567.1,1031.8L565.2,1030.2L559.5,1033.6L556.7,1030.0L554.7,1039.4L556.9,1044.3L556.4,1047.4L557.9,1052.4L556.9,1055.4L528.8,1055.3L533.2,1060.5L538.5,1064.7L538.5,1064.7L538.5,1064.7L538.1,1065.5L537.7,1066.9L528.6,1063.0L525.3,1060.5L522.7,1055.2L517.9,1050.1L514.7,1044.8L513.1,1037.2L514.6,1035.9L514.4,1027.9L513.1,1023.4L513.3,1021.6L526.7,1021.2L530.0,1023.7L544.9,1023.8L551.2,1021.8L552.5,1019.0L551.7,1016.3L557.2,1014.0L557.0,1015.2L562.2,1015.1L561.0,1019.9L562.9,1020.4L567.2,1026.9L571.3,1029.8L576.6,1030.0L574.3,1026.7L575.7,1023.5L575.7,1023.5ZM596.1,1035.4L596.1,1035.4L596.1,1035.4L596.1,1035.4L596.1,1035.4L596.1,1035.4L596.1,1035.4Z"><title>Sultan Kudarat — SOCCSKSARGEN (Region XII)</title></path></a>
<a href="../../provinces/sulu.html" target="_top" data-region="Autonomous Region in Muslim Mindanao (ARMM)"><path class="prov" id="sulu" d="M285.2,1112.7L281.3,1111.9L279.6,1109.5L283.5,1107.3L285.8,1109.9L285.2,1112.7ZM279.6,1100.5L278.7,1098.5L282.5,1097.8L284.2,1099.2L279.6,1100.5ZM287.3,1097.3L284.8,1097.4L285.8,1093.8L287.6,1095.8L287.3,1097.3ZM309.5,1090.9L304.6,1091.9L302.5,1090.5L304.6,1087.4L307.0,1088.0L309.5,1090.9ZM354.3,1073.5L361.4,1074.1L355.9,1076.6L351.3,1073.8L349.2,1070.9L354.3,1073.5ZM260.9,1058.9L257.0,1058.5L256.0,1056.8L258.2,1056.1L261.1,1050.0L263.0,1048.6L264.1,1052.3L262.6,1057.2L260.9,1058.9ZM320.8,1082.9L318.1,1083.3L313.2,1086.7L311.2,1084.7L311.2,1082.6L309.3,1080.6L306.5,1080.7L298.6,1084.5L296.4,1082.4L293.4,1081.9L288.0,1084.6L284.9,1082.1L283.5,1079.2L286.0,1075.2L292.9,1072.2L295.9,1069.4L301.2,1069.5L305.9,1071.7L308.7,1076.5L312.6,1074.6L315.8,1076.0L320.6,1076.1L323.4,1077.4L323.3,1080.3L321.2,1080.8L320.8,1082.9Z"><title>Sulu — Autonomous Region in Muslim Mindanao (ARMM)</title></path></a>
<a href="../../provinces/surigao-del-norte.html" target="_top" data-region="Dinagat Islands (Region XIII)"><path class="prov" id="surigao-del-norte" d="M651.3,803.2L652.2,803.3L652.4,807.6L654.4,808.9L652.8,813.2L652.7,816.3L648.8,815.3L648.2,813.1L649.7,809.9L648.9,804.5L651.3,803.2ZM652.6,793.6L657.3,785.4L657.3,782.8L659.8,781.3L663.1,788.5L664.0,792.5L662.0,795.7L664.4,796.2L666.0,797.7L667.0,800.7L662.8,802.9L657.2,801.7L657.7,803.2L651.7,796.3L655.1,795.3L652.6,793.6ZM631.1,788.7L633.9,792.0L633.5,794.2L629.8,793.7L629.4,790.0L626.0,788.0L626.5,786.1L624.0,784.9L624.9,781.6L626.5,781.3L624.9,779.2L622.2,779.6L620.5,781.2L617.7,778.2L617.5,775.2L619.2,773.4L618.9,770.6L620.9,771.2L620.8,767.2L619.4,762.6L622.0,762.1L621.8,758.7L624.6,759.2L626.0,758.0L626.7,753.4L629.0,752.5L631.1,756.6L631.0,759.2L629.3,766.6L627.8,767.6L630.0,770.0L628.9,772.0L631.2,773.1L631.0,777.3L632.8,780.6L631.1,784.0L631.9,787.5L631.1,788.7ZM615.7,826.0L610.9,808.9L611.4,805.1L615.2,798.5L618.7,801.7L624.6,803.5L624.3,805.2L626.9,812.5L630.6,814.6L632.1,814.3L633.6,816.4L636.5,816.4L639.2,818.5L643.4,819.1L647.2,822.0L649.6,822.3L649.6,822.3L634.9,835.4L636.0,832.1L634.7,829.7L631.1,826.4L624.3,824.7L619.5,824.9L615.7,826.0Z"><title>Surigao del Norte — Dinagat Islands (Region XIII)</title></path></a>
<a href="../../provinces/surigao-del-sur.html" target="_top" data-region="Dinagat Islands (Region XIII)"><path class="prov" id="surigao-del-sur" d="M635.4,840.0L634.9,835.4L649.6,822.3L649.6,822.3L651.4,826.1L648.6,827.1L648.4,829.4L652.0,830.1L653.9,829.1L654.1,834.4L655.3,836.7L660.0,840.6L664.8,839.0L667.4,836.4L670.4,835.7L668.0,845.5L667.6,851.2L670.3,852.6L672.0,855.9L677.3,861.0L679.7,868.5L676.4,874.7L672.2,877.2L673.2,880.7L669.1,880.6L664.8,883.1L662.9,886.6L666.4,892.3L672.3,892.2L670.8,890.3L680.7,891.7L681.7,891.1L684.0,894.0L684.7,896.6L682.0,896.7L682.5,901.7L679.1,905.3L683.1,909.2L679.6,914.9L681.3,917.0L688.6,913.7L688.1,922.0L686.7,930.1L688.0,931.9L683.9,935.4L683.0,937.8L677.9,934.9L676.3,930.8L676.3,930.8L675.3,926.7L670.9,919.5L669.9,915.0L671.3,907.4L669.8,904.5L662.3,903.6L660.0,902.3L659.0,899.0L654.8,892.1L654.2,889.4L657.2,883.9L656.5,880.7L650.9,875.1L651.2,872.5L648.9,870.9L645.6,866.9L643.8,861.7L640.4,860.6L640.8,858.1L640.3,850.1L637.7,842.8L637.7,842.8L637.7,842.8L635.4,840.0Z"><title>Surigao del Sur — Dinagat Islands (Region XIII)</title></path></a>
<a href="../../provinces/tacloban.html" target="_top" data-region="Eastern Visayas (Region VIII)"><path class="prov" id="tacloban" d="M579.6,689.1L579.0,692.0L580.1,693.8L584.4,695.3L584.3,698.9L580.4,699.4L576.6,696.2L575.6,689.8L579.6,689.1Z"><title>Tacloban — Eastern Visayas (Region VIII)</title></path></a>
<a href="../../provinces/taguig.html" target="_top" data-region="National Capital Region"><path class="prov" id="taguig" d="M303.2,456.1L304.4,456.2L305.5,457.4L306.1,462.6L301.8,461.4L300.6,461.7L300.7,459.0L299.8,458.7L298.9,457.2L300.6,456.4L302.1,456.6L302.6,456.6L303.2,456.1Z"><title>Taguig — National Capital Region</title></path></a>
<a href="../../provinces/tarlac.html" target="_top" data-region="Central Luzon (Region III)"><path class="prov" id="tarlac" d="M244.3,377.7L250.4,374.0L252.2,370.1L254.9,367.6L261.6,370.4L266.7,366.8L269.5,359.3L271.3,363.1L272.2,371.0L273.6,374.8L276.0,377.4L279.9,377.8L280.7,379.3L278.5,383.5L279.5,386.3L280.0,392.6L279.3,395.5L279.6,399.0L281.4,400.7L281.3,403.9L279.4,402.8L275.7,403.5L265.9,404.1L259.4,406.4L254.9,410.0L253.4,410.1L251.3,406.0L248.3,402.5L240.4,398.9L238.3,397.3L236.9,392.6L238.7,387.3L244.3,377.7Z"><title>Tarlac — Central Luzon (Region III)</title></path></a>
<a href="../../provinces/tawi-tawi.html" target="_top" data-region="Autonomous Region in Muslim Mindanao (ARMM)"><path class="prov" id="tawi-tawi" d="M180.7,1172.8L180.0,1173.5L180.5,1164.8L180.1,1159.9L178.6,1155.6L180.9,1156.2L183.3,1163.1L182.9,1167.9L180.7,1172.8ZM207.8,1158.6L205.0,1157.4L205.5,1153.9L208.2,1155.6L207.8,1158.6ZM205.7,1144.3L201.7,1145.9L201.4,1144.1L205.1,1139.8L205.7,1144.3ZM218.4,1139.4L216.4,1143.2L214.2,1142.3L211.9,1144.3L207.3,1145.1L206.1,1139.8L215.7,1134.9L217.3,1132.5L226.2,1129.9L226.9,1127.7L234.3,1123.3L235.6,1124.8L235.9,1129.2L238.3,1130.5L236.3,1139.3L233.7,1139.6L233.6,1134.5L230.4,1135.4L228.6,1132.8L227.7,1136.3L226.1,1137.7L221.6,1137.1L220.1,1139.3L218.4,1139.4Z"><title>Tawi-Tawi — Autonomous Region in Muslim Mindanao (ARMM)</title></path></a>
<a href="../../provinces/valenzuela.html" target="_top" data-region="National Capital Region"><path class="prov" id="valenzuela" d="M299.3,446.2L297.5,446.6L297.1,447.2L294.8,447.0L293.4,445.4L291.9,443.0L294.4,444.1L297.4,441.7L297.5,444.4L298.6,445.1L299.4,445.7L299.3,446.2Z"><title>Valenzuela — National Capital Region</title></path></a>
<a href="../../provinces/zambales.html" target="_top" data-region="Central Luzon (Region III)"><path class="prov" id="zambales" d="M253.4,410.1L252.0,411.9L252.7,415.4L256.4,419.2L256.6,422.8L258.8,426.7L258.4,428.6L250.9,428.7L246.1,427.1L241.0,430.9L239.4,438.6L238.5,439.9L235.1,439.1L231.8,436.3L229.8,427.1L230.2,417.5L227.8,407.1L226.7,406.0L226.9,402.5L223.5,396.1L218.9,390.8L221.2,387.6L223.8,386.2L224.3,384.6L220.2,378.6L221.5,373.9L221.4,371.7L217.7,367.8L219.3,367.5L219.3,363.6L223.3,363.7L227.8,360.1L233.1,362.2L236.9,362.5L239.8,369.5L243.4,374.9L244.3,377.7L238.7,387.3L236.9,392.6L238.3,397.3L240.4,398.9L248.3,402.5L251.3,406.0L253.4,410.1Z"><title>Zambales — Central Luzon (Region III)</title></path></a>
<a href="../../provinces/zamboanga.html" target="_top" data-region="Zamboanga Peninsula (Region IX)"><path class="prov" id="zamboanga" d="M384.6,969.9L391.7,969.7L390.9,971.2L393.2,975.6L390.7,979.9L387.4,980.8L384.9,986.0L383.3,996.8L380.3,1000.9L376.8,1009.2L374.2,1011.5L368.4,1010.0L361.0,1005.5L358.3,999.8L358.7,992.8L373.0,993.9L374.6,993.0L377.7,988.2L379.2,983.4L379.2,978.9L380.4,976.0L384.6,969.9Z"><title>Zamboanga — Zamboanga Peninsula (Region IX)</title></path></a>
<a href="../../provinces/zamboanga-sibugay.html" target="_top" data-region="Zamboanga Peninsula (Region IX)"><path class="prov" id="zamboanga-sibugay" d="M435.3,975.2L434.6,978.3L424.8,982.7L423.7,980.8L423.2,976.2L423.9,973.7L425.7,972.8L428.5,975.4L430.5,972.8L432.5,972.8L435.3,975.2ZM391.7,969.7L384.6,969.9L386.9,962.2L391.1,957.2L392.1,953.2L393.8,951.4L397.4,949.4L404.8,941.7L407.2,940.1L417.4,936.2L423.1,935.5L432.0,937.4L432.5,943.8L442.0,944.5L444.3,945.5L445.1,952.2L441.7,956.6L442.0,958.9L440.5,960.1L440.6,963.1L439.0,965.7L439.0,969.1L437.8,970.2L434.6,968.8L432.1,964.3L429.2,967.3L429.2,969.5L426.4,970.8L422.9,968.9L423.4,965.2L425.7,965.7L424.2,961.1L423.2,955.4L424.7,950.2L424.0,949.0L419.2,949.3L416.7,946.8L413.5,946.8L408.9,948.8L402.8,953.5L397.8,959.9L397.0,962.1L400.8,962.1L400.8,963.9L397.8,967.8L398.3,964.8L391.7,969.7Z"><title>Zamboanga Sibugay — Zamboanga Peninsula (Region IX)</title></path></a>
<a href="../../provinces/zamboanga-del-norte.html" target="_top" data-region="Zamboanga Peninsula (Region IX)"><path class="prov" id="zamboanga-del-norte" d="M477.7,886.6L478.3,914.7L451.8,914.8L450.5,916.2L450.5,928.4L451.5,932.4L447.2,931.2L442.8,931.5L441.0,932.5L437.0,936.7L432.0,937.4L423.1,935.5L417.4,936.2L407.2,940.1L404.8,941.7L397.4,949.4L393.8,951.4L392.1,953.2L391.1,957.2L386.9,962.2L384.6,969.9L380.4,976.0L379.2,978.9L379.2,983.4L377.7,988.2L374.6,993.0L373.0,993.9L358.7,992.8L360.8,988.1L366.0,983.7L369.0,982.2L368.1,979.4L369.0,971.9L371.3,965.6L376.3,961.3L373.9,960.2L374.6,956.3L374.2,951.6L372.7,950.0L375.1,944.9L381.3,937.2L383.1,933.9L386.9,930.7L397.5,926.7L409.2,924.8L412.7,923.1L414.9,919.6L417.2,922.8L420.6,923.1L432.6,920.6L438.3,916.3L439.1,914.7L435.6,911.6L435.1,909.2L437.8,906.7L437.5,902.7L440.3,897.1L444.0,893.8L453.4,892.2L455.6,893.8L459.9,893.5L462.1,891.9L464.3,886.2L467.8,885.7L469.6,884.4L466.3,879.3L468.8,878.8L472.7,881.1L475.1,880.7L475.8,886.4L477.7,886.6Z"><title>Zamboanga del Norte — Zamboanga Peninsula (Region IX)</title></path></a>
<a href="../../provinces/zamboanga-del-sur.html" target="_top" data-region="Zamboanga Peninsula (Region IX)"><path class="prov" id="zamboanga-del-sur" d="M432.0,937.4L437.0,936.7L441.0,932.5L442.8,931.5L447.2,931.2L451.5,932.4L450.5,928.4L450.5,916.2L451.8,914.8L478.3,914.7L478.0,922.0L478.3,926.4L479.5,928.5L483.3,929.3L484.5,930.8L487.1,930.7L486.6,933.7L487.9,933.7L489.1,938.1L488.3,939.4L482.6,943.6L480.5,943.1L474.6,943.7L470.3,946.0L470.6,948.4L474.2,952.7L473.3,955.9L470.3,958.4L466.8,959.7L466.5,962.3L463.7,962.5L466.8,966.6L467.2,968.3L470.8,971.3L471.2,974.4L470.1,977.0L468.5,977.1L462.9,973.5L458.8,969.1L458.4,966.3L454.5,966.6L452.5,969.1L450.5,968.8L446.9,964.1L447.3,962.5L450.9,961.3L451.7,958.6L448.3,956.1L447.5,950.9L445.1,952.2L444.3,945.5L442.0,944.5L432.5,943.8L432.0,937.4L432.0,937.4Z"><title>Zamboanga del Sur — Zamboanga Peninsula (Region IX)</title></path></a>
</svg>