<svg xmlns="http://www.w3.org/2000/svg" viewBox="0 0 434.31 140.42"><defs><style>.cls-1{fill:#010001;}.cls-2,.cls-3{fill:#fff;}.cls-3{font-size:21.36px;font-family:AvenirNextLTPro-Demi, Avenir Next LT Pro;font-weight:300;letter-spacing:0.07em;}.cls-4{letter-spacing:0.05em;}</style></defs><g id="Layer_2" data-name="Layer 2"><g id="Layer_1-2" data-name="Layer 1"><rect class="cls-1" width="434.31" height="140.42"/><path class="cls-2" d="M23.14,18.1v97.7H177V18.1ZM169.3,25.82V50.23C139.23,66.94,126.94,36.5,126.94,36.5c-4.48,11.07-14.65,19.38-28.08,19-18.31,0-25.23-19-25.23-19-5.7,15-17.91,18.19-26,19-7.5.59-13.89-3.34-16.74-5.45V25.82ZM30.85,60c26.95,11.93,42.37-8.06,42.37-8.06S80.55,62.6,98.86,63.79a33.93,33.93,0,0,0,28.08-11.47c16.29,17.21,37.21,9.86,42.36,7.66V83.06c-30.07,16.71-42.36-13.73-42.36-13.73-4.48,11.07-14.65,19.38-28.08,19-18.31,0-25.23-19-25.23-19-5.7,15-17.91,18.19-26,19-7.5.59-13.89-3.34-16.74-5.45Zm0,48.11V92.81c26.95,11.93,42.37-8.06,42.37-8.06s7.33,10.68,25.64,11.87a33.93,33.93,0,0,0,28.08-11.47c16.29,17.21,37.21,9.86,42.36,7.66v15.28Z"/><polygon class="cls-2" points="194.12 20.28 203.94 20.28 231.41 88.17 221.59 88.17 213.91 69.38 193.98 69.38 193.98 60.84 210.49 60.84 194.12 20.28"/><polygon class="cls-2" points="286.92 20.28 296.74 20.28 324.21 88.17 314.39 88.17 306.7 69.38 286.78 69.38 286.78 60.84 303.29 60.84 286.92 20.28"/><polygon class="cls-2" points="340.15 60.84 323.78 20.28 333.6 20.28 361.07 88.17 351.25 88.17 343.56 69.38 340.15 60.84"/><polygon class="cls-2" points="373.95 87.99 366.34 69.38 362.92 60.84 346.55 20.28 356.37 20.28 378.86 75.86 401.35 20.28 411.17 20.28 394.8 60.84 391.38 69.38 383.77 87.99 383.7 88.17 374.02 88.17 373.95 87.99"/><polygon class="cls-2" points="260.59 20.28 270.41 20.28 249.77 54.3 270.41 88.03 260.45 88.03 240.09 54.15 260.59 20.28"/><text class="cls-3" transform="translate(248.92 117.19) scale(1.03 1)">SURF <tspan class="cls-4" x="65.58" y="0">C</tspan><tspan x="81.6" y="0">O</tspan></text></g></g></svg>