<svg xmlns="http://www.w3.org/2000/svg" viewBox="0 0 157.51 157.51"><defs><style>.cls-1{fill:#fff;}</style></defs><g id="Layer_2" data-name="Layer 2"><g id="Layer_1-2" data-name="Layer 1"><circle cx="78.75" cy="78.75" r="78.73"/><path class="cls-1" d="M21.63,90,9.12,55.71l8.14-3c5.53-2,8.91-.36,10.86,5l.5,1.37c1.28,3.53.93,6.21-1,8l0,.1c3,0,5.21,1.81,6.63,5.68l1.07,2.94c1.93,5.29.12,9.17-5.22,11.12Zm-2-22.3,2.11-.76c2.16-.79,2.86-2.21,1.91-4.81l-.7-1.91c-.85-2.35-2.21-3.19-4-2.52l-2.59.94Zm5.63,15.44L28.32,82c1.91-.7,2.47-1.9,1.56-4.4l-1.09-3c-1.15-3.13-2.5-3.8-5-2.89l-2.4.87Z"/><path class="cls-1" d="M28.72,48.56l5.38-2,9.69,26.55c.8,2.2,2.14,3,4,2.33s2.34-2.13,1.53-4.33L39.59,44.6l5.19-1.89,9.54,26.15c2,5.54.35,9.64-4.89,11.55s-9.16-.15-11.17-5.69Z"/><path class="cls-1" d="M61.11,75.6,48.6,41.31l8.23-3c5.34-2,9.07-.09,11.13,5.55L74.28,61.2c2,5.63.4,9.45-4.94,11.4Zm3.6-6.86,2.74-1c1.81-.66,2.33-2.13,1.53-4.33l-6.5-17.83c-.81-2.21-2.15-3-4-2.33l-2.74,1Z"/><path class="cls-1" d="M71.06,42.33c-2-5.48-.25-9.67,5-11.6s9.32.15,11.32,5.64L94,54.4c2,5.48.25,9.67-5,11.6s-9.32-.15-11.32-5.64ZM81.91,38q-1.23-3.37-4-2.36c-1.87.68-2.39,2.14-1.56,4.4l6.82,18.71q1.23,3.38,4,2.36c1.87-.68,2.39-2.14,1.56-4.4Z"/><path class="cls-1" d="M104.6,59.74,93.89,30.35l-5.64,2-1.78-4.89,16.65-6.08,1.79,4.9-5.64,2.05L110,57.78Z"/><path class="cls-1" d="M114.32,47l-.71-2,5.09-1.85.86,2.35c.8,2.2,2.15,3,4,2.31s2.43-2.16,1.59-4.47A7.13,7.13,0,0,0,122.77,40a19,19,0,0,0-5.12-2.63A24.47,24.47,0,0,1,111,33.76a11.71,11.71,0,0,1-3.29-4.9c-2-5.44-.31-9.54,4.93-11.45s9,.22,11,5.76l.52,1.42L119,26.45l-.64-1.77c-.82-2.25-2.11-3.05-3.92-2.39s-2.36,2.07-1.55,4.28a6.57,6.57,0,0,0,2.28,3.05,22.46,22.46,0,0,0,5.15,2.56A21,21,0,0,1,127,35.87,12.26,12.26,0,0,1,130.35,41c2.06,5.63.34,9.75-4.95,11.68S116.34,52.52,114.32,47Z"/><path class="cls-1" d="M39.06,137.65,23.16,94l9.65-3.52,16.09,30-7-33.31,9.66-3.52,15.9,43.61L61,129.65l-12-33,6.93,34.89-5.73,2.09L33,102.45l12,33Z"/><path class="cls-1" d="M72.58,125.43,56.68,81.81,75.37,75l2.27,6.23L65.8,85.55,70,97.07l9.41-3.43,2.27,6.23-9.4,3.43,4.88,13.4L89,112.38l2.27,6.23Z"/><path class="cls-1" d="M95,117.27,79,73.66l10.47-3.82c6.79-2.48,11.53-.11,14.15,7l8,22.06c2.61,7.16.5,12-6.29,14.5Zm4.58-8.73,3.49-1.27c2.3-.84,3-2.71,1.94-5.51L96.69,79.08c-1-2.8-2.73-3.8-5-3l-3.49,1.27Z"/><path class="cls-1" d="M120.24,108l-15.9-43.61,6.85-2.5,15.9,43.62Z"/><path class="cls-1" d="M147,98.3l-4.3-8.11-7.91,2.89,1.93,9-6.36,2.31-8.8-46.2,9.29-3.38,23,41Zm-13.5-11.46,6.17-2.25L128.51,63.74Z"/></g></g></svg>